<svg width="42" height="35" viewBox="0 0 42 35" fill="none" xmlns="http://www.w3.org/2000/svg">
<path d="M30.4755 12.2827H11.524C11.3877 12.2825 11.2569 12.2169 11.1591 12.0998C11.0574 11.9779 11 11.8104 11 11.6354C11 11.4605 11.0574 11.293 11.1591 11.1711C11.2569 11.0539 11.3877 10.9883 11.524 10.9882H30.4755C30.6117 10.9883 30.7426 11.0539 30.8404 11.1711C30.9412 11.2938 30.9986 11.4607 31 11.6354C30.9884 11.9868 30.7602 12.2683 30.4755 12.2827Z" fill="#C78E66"/>
<path d="M30.4755 23.1372H11.5245C11.2398 23.1228 11.0116 22.8413 11 22.4899C11.0014 22.3152 11.0588 22.1483 11.1596 22.0256C11.2574 21.9084 11.3883 21.8428 11.5245 21.8427H30.4755C30.6117 21.8428 30.7426 21.9084 30.8404 22.0256C30.9412 22.1483 30.9986 22.3152 31 22.4899C30.9884 22.8413 30.7602 23.1228 30.4755 23.1372Z" fill="#C78E66"/>
<path d="M30.4755 17.7098H11.5245C11.3858 17.7108 11.2532 17.6392 11.1596 17.5128C11.0595 17.3954 11.0019 17.2331 11 17.0626C11.0019 16.8921 11.0595 16.7297 11.1596 16.6123C11.2532 16.4859 11.3858 16.4143 11.5245 16.4153H30.4755C30.6142 16.4143 30.7468 16.4859 30.8403 16.6123C30.9405 16.7297 30.9981 16.8921 31 17.0626C31.0012 17.2379 30.9434 17.4061 30.8403 17.5269C30.7448 17.6481 30.6125 17.7145 30.4755 17.7098Z" fill="#C78E66"/>
</svg>
