<svg width="24" height="20" viewBox="0 0 24 20" fill="none" xmlns="http://www.w3.org/2000/svg">
<path d="M0.31031 1.91816C0.241353 1.84996 0.181014 1.77323 0.129296 1.68798C0.0775776 1.60273 0.0430986 1.51748 0.0258591 1.43223C0.00861966 1.32992 0 1.2191 0 1.09974C0 0.775789 0.103437 0.511509 0.31031 0.306905C0.517184 0.102302 0.784395 0 1.11195 0H22.8881C23.2156 0 23.4828 0.102302 23.6897 0.306905C23.8966 0.511509 24 0.775789 24 1.09974C24 1.4237 23.8966 1.6965 23.6897 1.91816C23.4828 2.12276 23.2156 2.22506 22.8881 2.22506H1.11195C0.784395 2.22506 0.517184 2.12276 0.31031 1.91816ZM22.8881 8.90026C23.2156 8.90026 23.4828 9.00256 23.6897 9.20716C23.8966 9.41176 24 9.67604 24 10C24 10.324 23.8966 10.5882 23.6897 10.7928C23.4828 10.9974 23.2156 11.0997 22.8881 11.0997H1.11195C0.784395 11.0997 0.517184 10.9974 0.31031 10.7928C0.275831 10.7587 0.241352 10.7161 0.206874 10.665C0.172395 10.6138 0.137916 10.5627 0.103437 10.5115C0.0861974 10.4604 0.0689578 10.4092 0.0517184 10.3581C0.0344789 10.3069 0.0172395 10.2558 0 10.2046C0 10.1364 0 10.0682 0 10C0 9.67604 0.103437 9.41176 0.31031 9.20716C0.517184 9.00256 0.784395 8.90026 1.11195 8.90026H22.8881ZM23.6897 18.0818C23.8966 18.2864 24 18.5507 24 18.8747C24 19.1986 23.8966 19.4714 23.6897 19.6931C23.4828 19.8977 23.2156 20 22.8881 20H1.11195C0.784395 20 0.517184 19.8977 0.31031 19.6931C0.275831 19.659 0.241352 19.6249 0.206874 19.5908C0.189634 19.5396 0.163775 19.497 0.129296 19.4629C0.112056 19.4118 0.094817 19.3691 0.0775776 19.335C0.0603381 19.2839 0.0430986 19.2327 0.0258591 19.1816C0.00861966 19.1304 0 19.0878 0 19.0537C0 19.0026 0 18.9429 0 18.8747C0 18.5507 0.103437 18.2864 0.31031 18.0818C0.517184 17.8772 0.784395 17.7749 1.11195 17.7749H22.8881C23.1984 17.7749 23.4656 17.8772 23.6897 18.0818Z" fill="white"/>
</svg>
