<svg width="31" height="27" viewBox="0 0 31 27" fill="none" xmlns="http://www.w3.org/2000/svg">
<path d="M5.27081 8.8125H1.72912C1.31245 8.8125 1 9.12495 1 9.54162V10.4791C1 11.3125 1.93745 11.3125 2.77078 11.4167C2.45828 12.0417 1.83332 17.6667 1.83332 17.6667C1.83332 17.7708 1.83332 24.6458 1.83332 24.6458C1.83332 25.3749 2.45831 26 3.18747 26H5.27081C5.99997 26 6.62496 25.3749 6.62496 24.6458V21.9375H24.6458V24.6458C24.6458 25.3749 25.2708 26 26 26H28.0833C28.8125 26 29.4375 25.3749 29.4375 24.6458C29.4375 24.6458 29.4375 17.7708 29.4375 17.6667C29.4375 17.6667 28.8125 12.1458 28.5 11.4167C29.3333 11.3125 30.2708 11.3125 30.2708 10.4791V9.54162C30.2708 9.12495 29.9583 8.8125 29.5416 8.8125H26.1041" stroke="#C78E66" stroke-linecap="round" stroke-linejoin="round"/>
<path d="M26.1038 8.70836C26.1038 10.2709 24.333 11.4167 22.7705 11.4167H8.60385C6.93719 11.4167 5.27051 10.1667 5.27051 8.70836L6.62466 3.70831C6.93716 2.35414 7.97882 1 9.54132 1H21.833C23.4997 1 24.5414 2.35414 24.7497 3.70831L26.1038 8.70836Z" stroke="#C78E66" stroke-linecap="round" stroke-linejoin="round"/>
<path d="M12.4585 16.625H18.9168" stroke="#C78E66" stroke-linecap="round" stroke-linejoin="round"/>
<path d="M12.4585 18.7084H18.9168" stroke="#C78E66" stroke-linecap="round" stroke-linejoin="round"/>
<path d="M9.95832 17.3541C9.95832 18.4999 9.0208 19.3333 7.97913 19.3333C6.8333 19.3333 6 18.3957 6 17.3541C6 16.2082 6.93746 15.375 7.97913 15.375C9.0208 15.375 9.95832 16.2082 9.95832 17.3541Z" stroke="#C78E66" stroke-linecap="round" stroke-linejoin="round"/>
<path d="M25.5833 17.3541C25.5833 18.4999 24.6458 19.3333 23.6041 19.3333C22.4583 19.3333 21.625 18.3957 21.625 17.3541C21.625 16.2082 22.5625 15.375 23.6041 15.375C24.6458 15.375 25.5833 16.2082 25.5833 17.3541Z" stroke="#C78E66" stroke-linecap="round" stroke-linejoin="round"/>
<path d="M14.021 3.08337H17.3543" stroke="#C78E66" stroke-linecap="round" stroke-linejoin="round"/>
<path d="M29.5422 21.9376H1.93799" stroke="#C78E66" stroke-linecap="round" stroke-linejoin="round"/>
</svg>
