<svg width="33" height="33" viewBox="0 0 33 33" fill="none" xmlns="http://www.w3.org/2000/svg">
<path d="M22.0883 11.4341C22.0883 11.2923 21.9723 11.1763 21.8305 11.1763L19.7035 11.1859L16.5002 15.0048L13.3001 11.1892L11.1699 11.1795C11.0281 11.1795 10.9121 11.2923 10.9121 11.4373C10.9121 11.4985 10.9347 11.5565 10.9733 11.6049L15.166 16.6L10.9733 21.5919C10.9344 21.6391 10.9128 21.6983 10.9121 21.7595C10.9121 21.9013 11.0281 22.0173 11.1699 22.0173L13.3001 22.0076L16.5002 18.1888L19.7003 22.0044L21.8272 22.0141C21.969 22.0141 22.0851 21.9013 22.0851 21.7563C22.0851 21.695 22.0625 21.637 22.0238 21.5887L17.8376 16.5968L22.0303 11.6017C22.0689 11.5565 22.0883 11.4953 22.0883 11.4341Z" fill="#ADB5BD"/>
<path d="M16.5 2.09473C8.52715 2.09473 2.0625 8.55938 2.0625 16.5322C2.0625 24.5051 8.52715 30.9697 16.5 30.9697C24.4729 30.9697 30.9375 24.5051 30.9375 16.5322C30.9375 8.55938 24.4729 2.09473 16.5 2.09473ZM16.5 28.5205C9.88066 28.5205 4.51172 23.1516 4.51172 16.5322C4.51172 9.91289 9.88066 4.54395 16.5 4.54395C23.1193 4.54395 28.4883 9.91289 28.4883 16.5322C28.4883 23.1516 23.1193 28.5205 16.5 28.5205Z" fill="#ADB5BD"/>
</svg>
