<svg width="16" height="16" viewBox="0 0 16 16" fill="none" xmlns="http://www.w3.org/2000/svg">
<path d="M15.3407 1.92417L1.94001 15.3249C1.84349 15.4211 1.68606 15.4487 1.50107 15.402C1.30859 15.3533 1.10233 15.2282 0.92928 15.0552C0.756232 14.8821 0.631139 14.6759 0.582503 14.4834C0.535757 14.2984 0.563403 14.141 0.65959 14.0445L14.0603 0.643748C14.1568 0.547561 14.3143 0.519913 14.4993 0.566659C14.6919 0.6167 14.8976 0.741235 15.0714 0.91306C15.4107 1.26881 15.5279 1.70863 15.3407 1.92417Z" fill="#C78E66"/>
<path d="M13.8271 15.108L0.426698 1.70766C0.239578 1.49212 0.35687 1.05216 0.696345 0.696234C0.870254 0.524322 1.07604 0.399702 1.26874 0.349598C1.45379 0.302792 1.61125 0.330403 1.70777 0.426587L15.1081 13.8269C15.2043 13.9235 15.2319 14.0809 15.1851 14.266C15.135 14.4587 15.0104 14.6645 14.8385 14.8384C14.4826 15.1778 14.0426 15.2951 13.8271 15.108Z" fill="#C78E66"/>
</svg>
