<svg width="20" height="19" viewBox="0 0 20 19" fill="none" xmlns="http://www.w3.org/2000/svg">
<path d="M5.61404 1.24756C6.5627 1.24756 7.73229 1.93632 9.12281 3.31384L10.0195 4.19103L10.8967 3.29435C11.0916 3.08642 11.293 2.89149 11.501 2.70955C11.7219 2.52762 11.9363 2.35867 12.1442 2.20273C12.3522 2.04678 12.5536 1.91033 12.7485 1.79337C12.9565 1.67641 13.1514 1.57895 13.3333 1.50097C13.5153 1.41001 13.6907 1.34503 13.8596 1.30604C14.0416 1.26706 14.204 1.24756 14.347 1.24756C15.5036 1.24756 16.5237 1.68941 17.4074 2.5731C18.3041 3.46979 18.7524 4.54841 18.7524 5.80897C18.7524 7.06953 18.3041 8.15465 17.4074 9.06433C17.3424 9.11631 15.0097 11.6309 10.4094 16.6082C10.3444 16.6732 10.2729 16.7186 10.1949 16.7446C10.117 16.7576 10.052 16.7641 10 16.7641C9.84405 16.7641 9.7076 16.7122 9.59064 16.6082C5.38012 11.9298 3.04743 9.36322 2.59259 8.90838C2.48863 8.80442 2.38467 8.69396 2.2807 8.577C2.18973 8.44704 2.09877 8.32359 2.0078 8.20663C1.92982 8.07667 1.85185 7.94672 1.77388 7.81676C1.7089 7.68681 1.64392 7.55686 1.57895 7.4269C1.52697 7.28395 1.48148 7.141 1.4425 6.99805C1.40351 6.8551 1.36452 6.71215 1.32554 6.5692C1.29955 6.42625 1.28005 6.2768 1.26706 6.12086C1.25406 5.96491 1.24756 5.81546 1.24756 5.67251C1.24756 4.39896 1.69591 3.31384 2.59259 2.41715C3.00845 2.0143 3.46329 1.7219 3.95712 1.53996C4.45094 1.34503 5.00325 1.24756 5.61404 1.24756ZM5.61404 0C4.8473 0 4.13905 0.123457 3.48928 0.37037C2.83951 0.617284 2.24821 1.00715 1.7154 1.53996C1.1566 2.09877 0.727745 2.74204 0.42885 3.46979C0.14295 4.19753 0 4.93177 0 5.67251C0 6.40026 0.14295 7.12801 0.42885 7.85575C0.727745 8.5835 1.1566 9.22677 1.7154 9.78558C1.83236 9.90253 2.15075 10.2534 2.67057 10.8382C3.20338 11.41 3.79467 12.0598 4.44444 12.7875C5.10721 13.5153 5.75699 14.2365 6.39376 14.9513C7.04353 15.666 7.58934 16.2638 8.03119 16.7446C8.47303 17.2255 8.69396 17.4659 8.69396 17.4659C9.04483 17.8298 9.47368 18.0117 9.98051 18.0117C10.5003 18.0117 10.9422 17.8298 11.306 17.4659C15.9064 12.4886 18.2326 9.98051 18.2846 9.94152C19.4282 8.79792 20 7.4204 20 5.80897C20 4.19753 19.4282 2.82651 18.2846 1.69591C17.7128 1.12411 17.102 0.701754 16.4522 0.42885C15.8155 0.14295 15.1137 0 14.347 0C13.6582 0 12.9305 0.22742 12.1637 0.682261C11.41 1.1371 10.6888 1.7154 10 2.41715C8.36257 0.805718 6.90059 0 5.61404 0Z" fill="#C78E66"/>
</svg>
