<svg width="50" height="50" viewBox="0 0 50 50" xmlns="http://www.w3.org/2000/svg">
<rect width="50" height="50" rx="25"/>
<path fill-rule="evenodd" clip-rule="evenodd" d="M31.8597 32.7222C27.3306 32.7012 22.8008 32.7152 18.2717 32.7129C17.3532 32.7121 17.1935 32.55 17.1897 31.5859C17.1795 29.1357 17.206 26.6847 17.1663 24.2352C17.1538 23.4691 17.407 23.1761 18.1642 23.2938C18.4454 23.3374 18.7375 23.3008 19.1496 23.3008C18.6729 25.9786 19.3132 28.2449 21.5185 29.8846C22.7221 30.7785 24.1181 31.1854 25.6067 31.0092C28.8427 30.6274 31.6876 28.001 30.9499 23.3405H32.814C32.8311 23.6078 32.8607 23.8603 32.8607 24.1121C32.8646 26.641 32.8452 29.1708 32.874 31.6997C32.8826 32.4495 32.6146 32.7253 31.8597 32.7222ZM25.0926 21.0851C27.2613 21.0937 28.926 22.8113 28.9214 25.0364C28.9167 27.1834 27.132 28.9409 24.9866 28.9128C22.9168 28.8847 21.1174 27.0829 21.0917 25.0122C21.0659 22.876 22.8989 21.0765 25.0926 21.0851ZM30.7699 17.126C30.7964 17.126 30.8221 17.1268 30.8486 17.126C32.9511 17.1011 32.8678 17.0606 32.8467 19.1586C32.8467 21.1178 32.8467 21.1178 30.8548 21.1186C28.8419 21.1186 28.8419 21.1186 28.8419 19.0767C28.8419 17.1284 28.8419 17.1284 30.7699 17.126ZM32.6605 15.0031C30.16 14.9984 27.6594 15.0023 25.1588 15.0016C22.6325 15.0008 20.1054 15.0031 17.5784 15C16.0087 14.9977 15.0131 15.9492 15.0085 17.5391C14.9952 22.4895 14.9991 27.4406 15.0092 32.391C15.0108 33.3761 15.3676 34.2341 16.2985 34.6565C16.804 34.8857 17.4117 34.9714 17.9749 34.9769C21.2911 35.0049 24.6073 34.9893 27.9242 34.9901C29.3451 34.9909 30.7668 35.0104 32.1877 34.9924C33.949 34.9698 34.9897 34.0798 34.9921 32.5874C35.0022 27.5053 35.0022 22.4224 34.9944 17.3404C34.9929 15.9781 34.0098 15.0062 32.6605 15.0031Z" fill="white"/>
</svg>
