<svg width="20" height="18" viewBox="0 0 20 18" fill="none" xmlns="http://www.w3.org/2000/svg">
<path d="M5.60547 2.08984C6.95964 1.52995 8.42448 1.25 10 1.25C11.5755 1.25 13.0339 1.52995 14.375 2.08984C15.7292 2.64974 16.7969 3.41146 17.5781 4.375C18.3594 5.32552 18.75 6.36719 18.75 7.5C18.75 8.63281 18.3594 9.68099 17.5781 10.6445C16.7969 11.5951 15.7292 12.3503 14.375 12.9102C13.0339 13.4701 11.5755 13.75 10 13.75H9.47266C9.29036 13.75 9.13411 13.75 9.00391 13.75C8.8737 13.737 8.72396 13.7174 8.55469 13.6914L7.87109 13.5938L7.42188 14.1406C7.35677 14.2057 7.24609 14.3034 7.08984 14.4336C6.94661 14.5508 6.77083 14.6875 6.5625 14.8438C6.35417 15 6.10677 15.1693 5.82031 15.3516C5.53385 15.5208 5.25391 15.6706 4.98047 15.8008C5.11068 15.4753 5.21484 15.1432 5.29297 14.8047C5.37109 14.4661 5.41016 14.1406 5.41016 13.8281L5.42969 13.7891V12.9102L4.74609 12.5586C3.63932 11.9987 2.77995 11.276 2.16797 10.3906C1.55599 9.50521 1.25 8.54167 1.25 7.5C1.25 6.36719 1.64062 5.32552 2.42188 4.375C3.20312 3.41146 4.26432 2.64974 5.60547 2.08984ZM10 0C8.1901 0 6.51693 0.338542 4.98047 1.01562C3.44401 1.67969 2.22656 2.59115 1.32812 3.75C0.442708 4.89583 0 6.14583 0 7.5C0 8.78906 0.364583 9.97396 1.09375 11.0547C1.82292 12.1224 2.85156 12.9948 4.17969 13.6719C4.17969 13.6849 4.17318 13.6979 4.16016 13.7109C4.16016 13.7109 4.16016 13.7174 4.16016 13.7305C4.16016 14.5768 3.82812 15.5729 3.16406 16.7188C3.13802 16.7839 3.125 16.8555 3.125 16.9336C3.125 17.0898 3.17708 17.2266 3.28125 17.3438C3.39844 17.4479 3.53516 17.5 3.69141 17.5C3.70443 17.5 3.73698 17.5 3.78906 17.5C3.8151 17.5 3.83464 17.5 3.84766 17.5C4.44661 17.3958 5.09115 17.1615 5.78125 16.7969C6.47135 16.4323 7.03125 16.0807 7.46094 15.7422C7.90365 15.4036 8.20964 15.1302 8.37891 14.9219C8.71745 14.974 9.08203 15 9.47266 15C9.52474 15 9.60938 15 9.72656 15C9.84375 15 9.9349 15 10 15C11.8099 15 13.4831 14.668 15.0195 14.0039C16.556 13.3268 17.7669 12.4154 18.6523 11.2695C19.5508 10.1107 20 8.85417 20 7.5C20 5.66406 19.2057 4.04297 17.6172 2.63672C15.9635 1.19141 13.8867 0.338542 11.3867 0.078125C10.918 0.0260417 10.4557 0 10 0Z" fill="#C78E66"/>
</svg>
