<svg width="31" height="31" viewBox="0 0 31 31" fill="none" xmlns="http://www.w3.org/2000/svg">
<g clip-path="url(#clip0_187:3067)">
<path d="M29.7014 21.725L23.1122 18.9011C22.8307 18.7812 22.5179 18.7559 22.2208 18.8291C21.9237 18.9023 21.6584 19.07 21.4649 19.3071L18.5468 22.8723C13.9672 20.713 10.2817 17.0275 8.12242 12.4478L11.6876 9.52978C11.9251 9.33662 12.0932 9.07134 12.1665 8.77411C12.2397 8.47688 12.2141 8.16387 12.0936 7.88248L9.26964 1.2933C9.13733 0.989971 8.90333 0.74231 8.60799 0.593026C8.31264 0.443742 7.97446 0.402192 7.65176 0.47554L1.53324 1.88751C1.22212 1.95935 0.944534 2.13453 0.745794 2.38445C0.547054 2.63437 0.438893 2.94428 0.438965 3.26359C0.438965 18.354 12.6701 30.5616 27.737 30.5616C28.0564 30.5618 28.3664 30.4537 28.6165 30.255C28.8665 30.0562 29.0418 29.7786 29.1137 29.4673L30.5256 23.3488C30.5985 23.0245 30.5561 22.685 30.4056 22.3886C30.2552 22.0923 30.0062 21.8576 29.7014 21.725Z" fill="white"/>
</g>
<defs>
<clipPath id="clip0_187:3067">
<rect width="30.122" height="30.122" fill="white" transform="translate(0.438965 0.438965)"/>
</clipPath>
</defs>
</svg>
