<svg width="28" height="28" viewBox="0 0 28 28" fill="none" xmlns="http://www.w3.org/2000/svg">
<path d="M24.4006 13.9999V26.9999H3.60059V13.9999" stroke="#C78E66" stroke-linecap="round" stroke-linejoin="round"/>
<path d="M27 7.49988H1V13.9999H27V7.49988Z" stroke="#C78E66" stroke-linecap="round" stroke-linejoin="round"/>
<path d="M14.0005 26.9999V7.49988" stroke="#C78E66" stroke-linecap="round" stroke-linejoin="round"/>
<path d="M13.9999 7.50001H8.14991C7.28795 7.50001 6.4613 7.1576 5.85181 6.5481C5.24231 5.93861 4.8999 5.11196 4.8999 4.25C4.8999 3.38805 5.24231 2.5614 5.85181 1.9519C6.4613 1.34241 7.28795 1 8.14991 1C12.6999 1 13.9999 7.50001 13.9999 7.50001Z" stroke="#C78E66" stroke-linecap="round" stroke-linejoin="round"/>
<path d="M14.0005 7.50001H19.8505C20.7125 7.50001 21.5391 7.1576 22.1486 6.5481C22.7581 5.93861 23.1005 5.11196 23.1005 4.25C23.1005 3.38805 22.7581 2.5614 22.1486 1.9519C21.5391 1.34241 20.7125 1 19.8505 1C15.3005 1 14.0005 7.50001 14.0005 7.50001Z" stroke="#C78E66" stroke-linecap="round" stroke-linejoin="round"/>
</svg>
