<svg width="28" height="28" viewBox="0 0 28 28" fill="none" xmlns="http://www.w3.org/2000/svg">
<path d="M26.7176 14.4512C17.3983 5.22155 19.2801 7.10331 13.4556 1.27877C13.0971 0.92034 12.6491 1.00996 12.0218 1.00996L1.98567 1.09955C1.44802 1.09955 1 1.54762 1 2.08527L1.08959 12.8383C1.08959 13.1071 1.17924 13.3759 1.35845 13.5551C1.53767 13.7343 14.6205 26.7275 14.8893 26.9068C15.3373 27.086 15.6958 26.9964 15.9646 26.7275L26.6279 15.9745C27.076 15.4369 27.076 14.8096 26.7176 14.4512Z" stroke="#C78E66" stroke-miterlimit="10" stroke-linecap="round" stroke-linejoin="round"/>
<path d="M6.82442 9.16422C8.11114 9.16422 9.15421 8.12115 9.15421 6.83443C9.15421 5.54771 8.11114 4.50464 6.82442 4.50464C5.5377 4.50464 4.49463 5.54771 4.49463 6.83443C4.49463 8.12115 5.5377 9.16422 6.82442 9.16422Z" stroke="#C78E66" stroke-miterlimit="10" stroke-linecap="round" stroke-linejoin="round"/>
<path d="M16.6813 20.2757C15.7852 21.1718 14.5307 21.2614 13.8139 20.5445C13.097 19.8276 13.1866 18.5731 14.0827 17.677C14.9787 16.7809 16.2333 16.6913 16.9501 17.4082C17.7566 18.1251 17.5774 19.4692 16.6813 20.2757Z" stroke="#C78E66" stroke-linecap="round" stroke-linejoin="round"/>
<path d="M16.3229 12.9279C15.4268 13.824 14.1723 13.9136 13.4555 13.1967C12.7386 12.4798 12.8282 11.2254 13.7243 10.3293C14.6204 9.4332 15.8749 9.34355 16.5917 10.0604C17.3086 10.7773 17.1293 12.0318 16.3229 12.9279Z" stroke="#C78E66" stroke-linecap="round" stroke-linejoin="round"/>
<path d="M20.714 14.3616L9.60254 16.1537" stroke="#C78E66" stroke-linecap="round" stroke-linejoin="round"/>
</svg>
