<svg width="17" height="17" viewBox="0 0 17 17" fill="none" xmlns="http://www.w3.org/2000/svg">
<path opacity="0.9" fill-rule="evenodd" clip-rule="evenodd" d="M7.86125 0.650024C10.7575 0.650024 13.3228 2.22002 14.6468 4.61632L16.55 2.71582V8.08682H11.1713L13.4883 5.77317C12.4125 3.70737 10.3438 2.30267 7.86125 2.30267C4.4685 2.30267 1.655 5.11217 1.655 8.50003C1.655 11.8879 4.4685 14.6974 7.86125 14.6974C10.592 14.6974 12.8263 12.9621 13.7365 10.5658H15.4743C14.564 13.871 11.5023 16.35 7.86125 16.35C3.4755 16.35 0 12.7969 0 8.50003C0 4.20317 3.55825 0.650024 7.86125 0.650024ZM6.34415 4.78162V8.99582L10.2334 11.3095L10.8954 10.2353L7.5854 8.25213V4.78162H6.34415Z" fill="white"/>
</svg>
