<svg width="33" height="40" viewBox="0 0 33 40" xmlns="http://www.w3.org/2000/svg">
<path d="M2.48264 2.50489L30.5556 20L2.44444 37.4951L2.48264 2.50489ZM2.48264 0C2.04977 0 1.65509 0.104371 1.29861 0.313112C0.458333 0.808872 0.0381944 1.53947 0.0381944 2.50489L0 37.4951C0 38.4605 0.420139 39.1911 1.26042 39.6869C1.43866 39.7913 1.62963 39.8695 1.83333 39.9217C2.03704 39.9739 2.24074 40 2.44444 40C2.67361 40 2.89005 39.9609 3.09375 39.8826C3.32292 39.8304 3.52662 39.7391 3.70486 39.6086L31.8542 22.1135C32.6181 21.6438 33 20.9393 33 20C33 19.713 32.9491 19.439 32.8472 19.1781C32.7708 18.8911 32.6435 18.6432 32.4653 18.4344C32.287 18.1996 32.0833 18.017 31.8542 17.8865L3.74306 0.391389C3.61574 0.313112 3.47569 0.24788 3.32292 0.195695C3.1956 0.143509 3.05556 0.104371 2.90278 0.0782779C2.77546 0.0260926 2.63542 0 2.48264 0Z" />
</svg>
