<svg width="50" height="50" viewBox="0 0 50 50"  xmlns="http://www.w3.org/2000/svg">
    <rect width="50" height="50" rx="25"/>
    <path  fill-rule="evenodd" clip-rule="evenodd" d="M33.5446 30H31.2358C30.4819 30 30.3872 29.4786 29.0051 28.2267C27.8395 27.1354 27.3405 27.0491 27.058 27.0491C26.8064 27.0491 26.6335 27.2283 26.6335 27.6452V29.3145C26.6335 29.8067 26.335 30 25.1104 30C23.0995 30 20.8693 28.8229 19.1728 26.6468C16.6442 23.4128 16 20.9984 16 20.477C16 20.1938 16.2202 20 16.5187 20H18.5759C19.11 20 19.3143 20.1494 19.5026 20.6855C20.4448 23.3088 22.1259 25.6186 22.8324 25.6186C23.0995 25.6186 23.1308 25.4101 23.1308 24.8736V22.2058C23.1308 20.9131 22.3616 20.8051 22.3616 20.3281C22.3616 20.1388 22.5185 20 22.7696 20H26.068C26.5079 20 26.5707 20.1494 26.5707 20.6557V24.2774C26.5707 24.6903 26.6601 24.8438 26.8532 24.8438C27.0937 24.8438 27.3144 24.706 27.7485 24.2476C29.1025 22.8302 30.2149 20.5815 30.2149 20.5815C30.3558 20.2983 30.5293 20.1045 31.0001 20.1045H33.0573C33.4664 20.1045 33.6388 20.3135 33.5606 20.6855C33.3244 21.7288 30.9527 24.9033 30.9527 24.9033C30.733 25.2309 30.6389 25.4101 30.9527 25.7231C31.173 25.9911 31.864 26.5721 32.288 27.1087C33.3244 28.152 34 29.0313 34 29.5235C34 29.8955 33.7803 30 33.5446 30" fill="#fff"/>
</svg>
