<svg width="25" height="26" viewBox="0 0 25 26" fill="none" xmlns="http://www.w3.org/2000/svg">
<path fill-rule="evenodd" clip-rule="evenodd" d="M11.3164 0.529445C9.71171 0.696322 8.29096 1.11048 6.84234 1.83376C6.19739 2.15578 6.08444 2.24978 6.08444 2.46446C6.08444 2.63422 6.26501 2.82608 6.42476 2.82608C6.47023 2.82608 6.78601 2.6831 7.12648 2.50836C7.46695 2.33361 7.7769 2.19064 7.81529 2.19064C7.85797 2.19064 7.94315 2.34715 8.03479 2.5939C8.32308 3.37021 8.4507 3.51377 8.74575 3.39348C9.01336 3.28433 9.01629 3.14727 8.76501 2.48348C8.64253 2.15989 8.55588 1.8868 8.57246 1.87663C8.63143 1.84056 9.63528 1.56282 9.99105 1.48412C10.5486 1.3608 11.28 1.26646 11.9521 1.23117L12.5633 1.19905L12.5483 1.81431C12.5345 2.38102 12.5413 2.43748 12.6339 2.53006C12.7683 2.66443 13.0319 2.66331 13.1547 2.52781C13.233 2.44149 13.2504 2.33229 13.2642 1.84349L13.2804 1.26191H13.4779C13.8017 1.26191 14.6736 1.40357 15.3214 1.56145C15.9025 1.70306 16.8729 2.01784 16.9536 2.09097C16.9747 2.11013 16.8922 2.34647 16.7702 2.61614C16.5254 3.15714 16.4979 3.35178 16.6468 3.48655C16.7683 3.59648 17.007 3.6019 17.1223 3.4974C17.1697 3.45443 17.3059 3.19781 17.4249 2.92716C17.5439 2.65646 17.6651 2.43504 17.6941 2.43504C17.7707 2.43504 18.6563 2.94036 19.0764 3.22382C19.5478 3.54173 20.3258 4.17228 20.624 4.47813L20.8612 4.72136L20.4161 5.15458C19.9394 5.6186 19.9008 5.70512 20.0725 5.92337C20.1461 6.01687 20.2189 6.05217 20.3381 6.05217C20.4758 6.05217 20.5713 5.98838 20.9271 5.65883C21.4265 5.19632 21.3471 5.17599 21.8989 5.90748C22.4537 6.64298 22.9107 7.41617 23.268 8.22362L23.3852 8.48869L22.8208 8.6978C22.3281 8.88032 22.2485 8.92544 22.1951 9.05248C22.1115 9.25113 22.1853 9.44738 22.3727 9.52495C22.5038 9.57926 22.5734 9.56494 23.06 9.38374C23.3578 9.27283 23.6182 9.19242 23.6386 9.20508C23.6954 9.24013 23.9647 10.2628 24.0761 10.8669C24.1848 11.4555 24.2739 12.3137 24.2741 12.7732L24.2743 13.0665L23.7177 13.0514C23.1638 13.0364 23.1605 13.0369 23.0575 13.1679C22.9209 13.3416 22.9265 13.5079 23.0739 13.6552C23.1861 13.7675 23.2272 13.7752 23.7096 13.7752H24.2252V13.9767C24.2252 14.322 24.0815 15.1887 23.9102 15.8771C23.7426 16.5508 23.4031 17.539 23.3393 17.539C23.3198 17.539 23.0364 17.418 22.7094 17.2702C22.3824 17.1223 22.0616 17.0013 21.9965 17.0013C21.8265 17.0013 21.6825 17.166 21.6825 17.3603C21.6825 17.5731 21.7586 17.6358 22.3097 17.8778C22.5606 17.988 22.8314 18.112 22.9117 18.1535L23.0575 18.2288L22.8527 18.6049C22.3775 19.4778 21.7394 20.3531 21.0602 21.0638L20.6943 21.4466L20.3205 21.0459C19.7367 20.42 19.7402 20.4229 19.5931 20.4229C19.3701 20.4229 19.2376 20.547 19.2381 20.7557C19.2384 20.916 19.2904 20.9918 19.7046 21.435L20.1707 21.9339L19.7898 22.2375C19.5803 22.4045 19.1888 22.6859 18.9199 22.8628C18.3968 23.2069 17.0823 23.8934 16.9466 23.8934C16.8867 23.8934 16.8074 23.739 16.6516 23.3191C16.5344 23.0032 16.4048 22.7062 16.3636 22.6592C16.1875 22.458 15.766 22.6213 15.766 22.8907C15.766 22.988 15.9691 23.5795 16.1805 24.0979C16.2081 24.1657 16.1551 24.1976 15.88 24.2792C14.9558 24.5532 13.9977 24.711 12.9769 24.7574L12.291 24.7886L12.2973 24.1148C12.303 23.4986 12.2951 23.4325 12.2045 23.3419C12.0742 23.2116 11.8099 23.2173 11.7002 23.3527C11.6384 23.429 11.6101 23.6076 11.5835 24.0889C11.5426 24.8285 11.6199 24.77 10.8375 24.6526C10.243 24.5633 9.73185 24.4569 9.28718 24.3298C8.7277 24.1699 7.93176 23.8729 7.90981 23.8159C7.89856 23.7868 7.98931 23.5475 8.11151 23.2844C8.35628 22.7572 8.38684 22.5391 8.23526 22.402C8.12373 22.3011 7.88428 22.2845 7.78072 22.3704C7.74263 22.402 7.60391 22.6691 7.47247 22.964C7.34104 23.2589 7.21058 23.5006 7.18256 23.5012C7.10535 23.503 6.30907 23.0377 5.83682 22.715C5.35392 22.3849 4.59489 21.7581 4.27525 21.4253L4.05521 21.1963L4.45113 20.8218C4.92739 20.3714 4.98983 20.2712 4.91169 20.0827C4.85693 19.9504 4.68559 19.8364 4.54179 19.8364C4.50267 19.8364 4.26264 20.0242 4.00837 20.2537L3.54605 20.6712L3.24201 20.2904C3.07478 20.081 2.7859 19.6787 2.60009 19.3964C2.22505 18.8267 1.54172 17.4817 1.6134 17.4543C2.75133 17.0205 2.88809 16.9207 2.76199 16.6164C2.6993 16.4652 2.53814 16.3804 2.36319 16.4067C2.32006 16.4132 2.09073 16.4946 1.85358 16.5877C1.61643 16.6808 1.39566 16.7569 1.36305 16.7569C1.29117 16.7569 1.04199 15.8685 0.903712 15.1194C0.795063 14.5308 0.705924 13.6725 0.705729 13.2131L0.705582 12.9198L1.31122 12.9347L1.91686 12.9497L2.02032 12.8182C2.1564 12.6453 2.15112 12.4982 2.00384 12.3599C1.89696 12.2595 1.82253 12.2445 1.31929 12.2224L0.754675 12.1974V12.0028C0.754675 11.6812 0.896965 10.8078 1.0549 10.1602C1.20389 9.54929 1.49722 8.66305 1.57673 8.58357C1.60084 8.55947 1.82645 8.63719 2.09768 8.76301C2.6552 9.02168 2.80815 9.03835 2.95147 8.85617C3.18094 8.56456 3.06207 8.40618 2.38871 8.10655C2.12198 7.98787 1.89568 7.88507 1.88581 7.87813C1.85001 7.85306 2.33947 6.99282 2.68835 6.46765C3.04549 5.93011 3.67651 5.14324 3.99302 4.84082L4.16088 4.68039L4.56452 5.12188C4.92211 5.51297 4.98724 5.56336 5.1351 5.56336C5.34414 5.56336 5.49767 5.41858 5.49767 5.2215C5.49767 5.1057 5.41152 4.98203 5.08523 4.62961L4.67278 4.18407L4.90186 3.98894C5.48129 3.49534 5.45596 3.52624 5.43958 3.33345C5.42046 3.10768 5.22825 2.94383 5.03848 2.99144C4.73293 3.06813 3.24944 4.48693 2.60479 5.31896C1.24203 7.07801 0.378169 9.15469 0.0632237 11.429C-0.0210746 12.0377 -0.0210746 13.9486 0.0632237 14.5573C0.578988 18.2815 2.56572 21.4447 5.66881 23.4821C9.77806 26.1802 15.2324 26.1719 19.3443 23.4614C21.7246 21.8923 23.4831 19.5981 24.377 16.8954C25.56 13.3188 25.0376 9.29497 22.9855 6.17784C20.9714 3.11838 17.9032 1.16 14.2502 0.602227C13.6452 0.509844 11.9172 0.466976 11.3164 0.529445ZM11.8054 5.49464C10.4296 5.65834 9.16641 6.13086 8.114 6.87545C7.60948 7.23243 6.72533 8.11735 6.36256 8.62839C5.75888 9.47896 5.30732 10.5356 5.0975 11.5889C4.94191 12.37 4.94191 13.6163 5.0975 14.3974C5.71345 17.4893 8.05669 19.7988 11.1942 20.4064C11.8684 20.537 13.1784 20.5256 13.8946 20.383C16.9795 19.7689 19.307 17.4168 19.9015 14.3129C20.0251 13.6674 20.0251 12.3188 19.9015 11.6734C19.3102 8.58621 16.9602 6.20413 13.9209 5.61112C13.4144 5.51228 12.213 5.44615 11.8054 5.49464ZM13.8718 6.3451C16.5601 6.91011 18.6322 9.02608 19.1722 11.7579C19.2888 12.348 19.2888 13.6383 19.1722 14.2283C18.6217 17.0134 16.5165 19.1181 13.7256 19.6738C13.1342 19.7916 11.8456 19.7916 11.2543 19.6738C7.35688 18.8978 4.93184 15.0877 5.91872 11.2906C6.61282 8.62013 8.87777 6.62279 11.6342 6.25042C12.1589 6.17955 13.3172 6.22857 13.8718 6.3451ZM11.3409 7.07479C10.1255 7.3275 9.11184 7.86733 8.25878 8.71613C7.07054 9.89845 6.47586 11.3283 6.47566 13.0037C6.47556 14.3034 6.86992 15.5239 7.61437 16.5276C8.0121 17.0638 8.28744 17.3504 8.74932 17.7089C9.89492 18.5981 11.0687 19.0056 12.4831 19.0053C13.3677 19.005 14.1314 18.8526 14.8947 18.5238C15.2373 18.3762 15.319 18.1564 15.1233 17.9077C14.9937 17.7431 14.8486 17.7539 14.2663 17.9712C13.2056 18.3671 11.9018 18.3789 10.779 18.0028C9.01605 17.4122 7.63906 15.8177 7.28231 13.9537C7.18814 13.4617 7.18848 12.5259 7.283 12.0278C7.63804 10.1568 8.94603 8.6389 10.7614 7.99109C11.7916 7.62352 13.1281 7.61785 14.1822 7.97653C15.9875 8.59085 17.3406 10.1506 17.6969 12.0278C17.7917 12.5273 17.7917 13.459 17.6969 13.9585C17.4814 15.0941 16.8391 16.2348 16.0119 16.9512C15.7493 17.1786 15.7171 17.2266 15.7171 17.3896C15.7171 17.6206 15.8363 17.7345 16.0779 17.7345C16.2428 17.7345 16.3041 17.6901 16.7357 17.2579C17.9151 16.0769 18.5037 14.654 18.5041 12.9826C18.5048 10.2134 16.6776 7.86699 13.9573 7.1439C13.3102 6.97189 12.0017 6.93734 11.3409 7.07479ZM12.0743 8.565C11.5636 8.79126 11.3225 9.44591 11.5653 9.94718C12.0098 10.8652 13.3807 10.6394 13.5005 9.62848C13.5521 9.1932 13.2873 8.72713 12.8949 8.56226C12.6959 8.47867 12.2659 8.48009 12.0743 8.565ZM12.6939 9.31027C12.7431 9.35475 12.7833 9.44274 12.7833 9.50579C12.7833 9.64608 12.6226 9.81594 12.4899 9.81594C12.3605 9.81594 12.1965 9.6473 12.1965 9.5143C12.1965 9.26823 12.5067 9.14095 12.6939 9.31027ZM9.58056 9.60389C9.20836 9.8 9.01825 10.1114 9.01825 10.5247C9.01825 11.4319 10.0484 11.8823 10.7159 11.2672C11.4065 10.6309 10.9559 9.51806 10.0104 9.52461C9.85033 9.52573 9.66349 9.56019 9.58056 9.60389ZM14.5191 9.60365C14.111 9.81804 13.863 10.2763 13.9361 10.6809C13.9813 10.9312 14.0345 11.0293 14.2436 11.2478C14.8679 11.9006 15.9616 11.4399 15.9616 10.5242C15.9616 10.1132 15.7725 9.79971 15.4135 9.61567C15.1886 9.50037 14.7275 9.49421 14.5191 9.60365ZM10.2709 10.3801C10.3363 10.4798 10.3415 10.5281 10.2972 10.6252C10.1577 10.9312 9.7517 10.8629 9.7517 10.5333C9.7517 10.4453 9.77811 10.3468 9.81038 10.3145C9.91868 10.2062 10.1815 10.2436 10.2709 10.3801ZM15.1695 10.3145C15.2778 10.4228 15.2404 10.6855 15.1039 10.7749C14.8512 10.9405 14.5433 10.6327 14.7089 10.3801C14.7984 10.2436 15.0612 10.2062 15.1695 10.3145ZM11.966 11.2037C11.4577 11.3696 11.0159 11.762 10.7864 12.2514C10.6741 12.4909 10.6563 12.5924 10.6563 12.9942C10.6563 13.4202 10.6697 13.4868 10.8148 13.7814C11.0057 14.169 11.3554 14.5122 11.7458 14.6952C11.9877 14.8085 12.0882 14.8261 12.491 14.8261C12.9171 14.8261 12.9837 14.8128 13.2784 14.6677C13.6661 14.4769 14.0095 14.1273 14.1925 13.737C14.3058 13.4953 14.3236 13.3946 14.3236 12.9931C14.3236 12.5916 14.3058 12.4909 14.1925 12.2493C14.0108 11.8618 13.6659 11.5092 13.285 11.3218C13.0235 11.1931 12.9014 11.164 12.5709 11.1515C12.3247 11.1423 12.0932 11.1623 11.966 11.2037ZM13.0934 12.0484C13.7121 12.4831 13.7905 13.2618 13.2683 13.7838C12.9998 14.0523 12.7408 14.1413 12.3459 14.1009C11.852 14.0503 11.4324 13.6309 11.3818 13.1371C11.341 12.739 11.43 12.4839 11.706 12.208C11.9845 11.9296 12.1604 11.8656 12.5813 11.8897C12.8278 11.9038 12.9346 11.9369 13.0934 12.0484ZM8.60263 12.0558C8.19928 12.2464 7.99141 12.5651 7.99141 12.9931C7.99141 13.3012 8.07659 13.5095 8.28602 13.7133C8.9386 14.3485 10.0181 13.8997 10.0181 12.9931C10.0181 12.6518 9.85566 12.3446 9.56858 12.1431C9.29936 11.9541 8.89518 11.9176 8.60263 12.0558ZM15.5326 12.0701C14.7624 12.4513 14.7649 13.5439 15.5369 13.9175C15.9751 14.1295 16.5478 13.973 16.8241 13.5658C16.9476 13.3839 16.964 13.3163 16.964 12.989C16.964 12.6605 16.948 12.5951 16.824 12.4163C16.5433 12.0114 15.9647 11.8563 15.5326 12.0701ZM9.21384 12.7976C9.26762 12.8514 9.31163 12.9394 9.31163 12.9931C9.31163 13.1225 9.14294 13.2864 9.00989 13.2864C8.76374 13.2864 8.63641 12.9763 8.80579 12.7893C8.912 12.672 9.09179 12.6756 9.21384 12.7976ZM16.1656 12.7808C16.3476 12.9454 16.2214 13.2864 15.9785 13.2864C15.8381 13.2864 15.6682 13.1258 15.6682 12.9931C15.6682 12.8638 15.8369 12.6999 15.97 12.6999C16.0284 12.6999 16.1164 12.7363 16.1656 12.7808ZM9.7384 14.4755C9.30073 14.6116 9.01825 14.9986 9.01825 15.4621C9.01825 16.0507 9.43153 16.4636 10.0206 16.4636C10.5091 16.4636 10.9109 16.1486 11.0241 15.6769C11.1441 15.1769 10.8217 14.6343 10.3139 14.4815C10.0398 14.399 9.98616 14.3985 9.7384 14.4755ZM14.647 14.484C14.1375 14.6429 13.8305 15.1843 13.9596 15.6967C14.1885 16.6054 15.441 16.7491 15.8686 15.9157C15.9937 15.6717 15.9922 15.2488 15.8652 15C15.7387 14.752 15.4634 14.53 15.2006 14.4639C14.9431 14.3991 14.9165 14.4 14.647 14.484ZM10.2184 15.2639C10.3583 15.4037 10.3668 15.4727 10.2623 15.6218C10.1775 15.7429 9.91101 15.7724 9.81038 15.6718C9.70975 15.5712 9.73919 15.3048 9.8604 15.22C10.0095 15.1156 10.0786 15.124 10.2184 15.2639ZM15.1195 15.22C15.2407 15.3048 15.2701 15.5712 15.1695 15.6718C15.0688 15.7724 14.8024 15.7429 14.7175 15.6218C14.6131 15.4727 14.6215 15.4037 14.7614 15.2639C14.9013 15.124 14.9704 15.1156 15.1195 15.22ZM12.1832 15.502C11.4449 15.7316 11.2297 16.6602 11.7862 17.2159C12.1636 17.5928 12.8164 17.5876 13.2038 17.2045C13.7633 16.6514 13.5093 15.68 12.7557 15.4903C12.5005 15.4261 12.4223 15.4277 12.1832 15.502ZM12.6855 16.2681C12.8044 16.387 12.8112 16.5473 12.7024 16.6675C12.5377 16.8495 12.1965 16.7234 12.1965 16.4805C12.1965 16.3402 12.3572 16.1704 12.4899 16.1704C12.5437 16.1704 12.6317 16.2143 12.6855 16.2681Z" fill="#C78E66"/>
</svg>
