<svg width="50" height="50" viewBox="0 0 50 50" xmlns="http://www.w3.org/2000/svg">
<rect width="50" height="50" rx="25" />
<path fill-rule="evenodd" clip-rule="evenodd" d="M22.9546 27.9371V22.0631C24.9602 23.0483 26.9055 24.0031 28.9344 24.9986C26.9179 25.9897 24.9777 26.943 22.9546 27.9371ZM36.1335 21.1638C36.0964 20.2786 35.8541 19.4096 35.2118 18.6961C34.4217 17.819 33.3203 17.7413 32.235 17.7013C29.8219 17.6132 27.4067 17.574 24.4343 17.5C22.2693 17.5814 19.5471 17.6628 16.8293 17.7931C15.6035 17.8523 14.6818 18.4341 14.2722 19.5517C14.0576 20.1402 13.907 20.7745 13.8794 21.394C13.7928 23.3392 13.7317 25.2873 13.755 27.2332C13.7659 28.1798 13.9238 29.1369 14.1267 30.0673C14.3857 31.253 15.2157 31.9806 16.4903 32.1745C17.2927 32.2966 18.1104 32.3603 18.9229 32.3877C23.57 32.5446 28.2164 32.5557 32.862 32.3011C34.4465 32.2145 35.55 31.4558 35.9123 30.0036C36.1051 29.2279 36.2433 28.4189 36.2477 27.6247C36.2601 25.4708 36.223 23.3155 36.1335 21.1638Z" fill="white"/>
</svg>
