<?xml version="1.0" encoding="utf-8"?><svg width="18" height="10" fill="none" xmlns="http://www.w3.org/2000/svg" viewBox="0 0 18 10"><path d="M0 .638C0 .468.059.316.176.182A.566.566 0 01.598 0c.164 0 .305.06.423.182l8.04 8.324 7.9-8.196a.825.825 0 01.282-.164.623.623 0 01.3 0c.105.036.199.09.281.164A.607.607 0 0118 .747a.63.63 0 01-.176.455l-8.34 8.616a.476.476 0 01-.211.127.49.49 0 01-.229.055.456.456 0 01-.211-.055.492.492 0 01-.194-.127L.176 1.075A.5.5 0 01.053.856.499.499 0 010 .638z" fill="#C78E66"/></svg>