<?xml version="1.0" encoding="utf-8"?><svg width="16" height="21" fill="none" xmlns="http://www.w3.org/2000/svg" viewBox="0 0 16 21"><path d="M7.923 20.438c-2.308 0-4.205-.731-5.692-2.192C.744 16.785 0 14.926 0 12.668c0-.456.051-.939.154-1.448.102-.522.218-.972.346-1.35.128-.378.27-.757.423-1.135.167-.391.289-.659.365-.802.077-.157.141-.274.193-.353.128-.248.327-.352.596-.313a.519.519 0 01.327.157.494.494 0 01.192.293c.244.953.539 1.71.885 2.27.333.535.692.933 1.077 1.194-.372-1.605-.417-3.157-.135-4.657.167-.9.442-1.723.827-2.466.397-.757.795-1.337 1.192-1.742A7.901 7.901 0 017.731 1.22c.474-.313.807-.509 1-.587.205-.078.372-.137.5-.176a.615.615 0 01.307 0 .539.539 0 01.289.137.583.583 0 01.173.587c-.013.105-.032.242-.058.411-.025.157-.051.49-.077.998-.025.496-.025.985 0 1.468.039.483.122 1.044.25 1.683.141.64.334 1.233.577 1.78.064.118.135.255.212.412.077.143.166.3.27.47.05-.483.134-.92.25-1.312.281-1.03.826-1.78 1.634-2.25a.839.839 0 01.153-.079.522.522 0 01.308-.058.553.553 0 01.308.137c.09.065.154.156.192.274a.495.495 0 01.039.332c0 .04-.007.092-.02.157 0 .065.007.196.02.391.012.196.038.398.077.607.05.209.134.47.25.783.128.313.288.626.48.939.436.744.731 1.422.885 2.035.167.6.25 1.37.25 2.31a8.37 8.37 0 01-.385 2.543 7.126 7.126 0 01-1.115 2.153 7.673 7.673 0 01-1.711 1.644 7.699 7.699 0 01-2.231 1.057 9.193 9.193 0 01-2.635.372zm-6-10.862c-.461 1.175-.692 2.199-.692 3.073 0 1.905.628 3.47 1.884 4.697 1.257 1.226 2.86 1.84 4.808 1.84 1.987 0 3.622-.614 4.904-1.84 1.295-1.227 1.942-2.792 1.942-4.697 0-.548-.032-1.011-.096-1.39a4.297 4.297 0 00-.288-1.095 7.71 7.71 0 00-.577-1.194c-.449-.757-.744-1.514-.885-2.27-.14.222-.25.47-.327.743-.102.392-.18.842-.23 1.35-.052.496-.077.855-.077 1.077.012.222.025.378.038.47a.698.698 0 01-.116.391.552.552 0 01-.307.254l-.193.04a.507.507 0 01-.192-.04.675.675 0 01-.308-.235c-.769-1.108-1.314-2.009-1.634-2.7-.756-1.67-1.051-3.66-.885-5.969a6.467 6.467 0 00-.846.627 8.26 8.26 0 00-.865.9c-.308.365-.584.822-.827 1.37a8.434 8.434 0 00-.52 1.78A8.896 8.896 0 005.5 8.344c0 .548.026 1.03.077 1.448.051.404.122.802.211 1.193.09.379.154.646.193.803.051.156.09.26.115.313.026.052.039.11.039.176a.654.654 0 01-.02.157.352.352 0 01-.038.156 1.032 1.032 0 01-.096.157.585.585 0 01-.596.195 5.606 5.606 0 01-.25-.058 17.83 17.83 0 01-.5-.235 5.608 5.608 0 01-.712-.411 6.873 6.873 0 01-.75-.646c-.27-.287-.513-.6-.73-.94a5.49 5.49 0 01-.27-.488c-.09-.196-.173-.392-.25-.588z" fill="#C78E66"/></svg>