<?xml version="1.0" encoding="utf-8"?><svg width="20" height="21" fill="none" xmlns="http://www.w3.org/2000/svg" viewBox="0 0 20 21"><path d="M18.75.438H1.25C.911.438.618.56.371.807.124 1.057 0 1.35 0 1.689v17.5c0 .338.124.631.371.878.247.248.54.372.879.372h17.5c.338 0 .631-.124.879-.372.247-.247.371-.54.371-.878v-17.5c0-.222-.059-.43-.176-.625a1.068 1.068 0 00-.449-.45 1.195 1.195 0 00-.625-.175zm0 18.75H1.25v-17.5h17.5v17.5zM4.375 7.313h1.25v1.25c0 .182.059.332.176.449.13.117.28.175.449.175.17 0 .313-.058.43-.175a.577.577 0 00.195-.45v-1.25h1.25c.17 0 .313-.058.43-.175a.556.556 0 00.195-.43.577.577 0 00-.195-.45.556.556 0 00-.43-.194h-1.25v-1.25a.556.556 0 00-.195-.43.556.556 0 00-.43-.196.617.617 0 00-.45.196.584.584 0 00-.175.43v1.25h-1.25a.617.617 0 00-.45.195.608.608 0 00-.175.449c0 .17.059.313.176.43.13.117.28.176.449.176zm4.277 5.117a.556.556 0 00-.195-.43.577.577 0 00-.45-.195.584.584 0 00-.429.175L6.25 13.31 4.922 11.98a.608.608 0 00-.45-.175.618.618 0 00-.449.195.584.584 0 00-.175.43c0 .169.065.312.195.43l1.328 1.328-1.328 1.328a.736.736 0 00-.176.293.635.635 0 000 .312c.04.104.098.195.176.274a.577.577 0 00.195.156.8.8 0 00.488 0 .577.577 0 00.196-.156l1.328-1.31 1.328 1.31a.577.577 0 00.195.156.8.8 0 00.488 0 .577.577 0 00.196-.156c.3-.287.3-.58 0-.88l-1.328-1.328 1.328-1.328a.556.556 0 00.195-.43zm3.223-5.117h3.75c.17 0 .313-.06.43-.176a.556.556 0 00.195-.43.577.577 0 00-.195-.45.556.556 0 00-.43-.194h-3.75a.617.617 0 00-.45.195.608.608 0 00-.175.449c0 .17.059.313.176.43.13.117.28.176.449.176zm0 6.25h3.75c.17 0 .313-.06.43-.176a.556.556 0 00.195-.43.577.577 0 00-.195-.45.556.556 0 00-.43-.194h-3.75a.617.617 0 00-.45.195.608.608 0 00-.175.449c0 .17.059.313.176.43.13.117.28.175.449.175zm0 2.5h3.75c.17 0 .313-.06.43-.176a.556.556 0 00.195-.43.577.577 0 00-.195-.45.556.556 0 00-.43-.194h-3.75a.617.617 0 00-.45.195.608.608 0 00-.175.449c0 .17.059.313.176.43.13.117.28.175.449.175z" fill="#C78E66"/></svg>