<?xml version="1.0" encoding="utf-8"?><svg width="20" height="20" fill="none" xmlns="http://www.w3.org/2000/svg" viewBox="0 0 20 20"><path d="M11.89 20c-1.403 0-2.501-.013-3.294-.04-.78-.025-1.384-.084-1.813-.175-.415-.078-.682-.15-.799-.215a5.376 5.376 0 01-.526-.332c-.195-.156-.552-.286-1.072-.39-.507-.091-1.358-.176-2.554-.254a.65.65 0 01-.487-.235 8.136 8.136 0 01-.156-.254 8.62 8.62 0 01-.331-.644 12.67 12.67 0 01-.41-1.016 9.878 9.878 0 01-.312-1.367A10.1 10.1 0 010 13.418c0-1.901.318-3.36.955-4.375a.62.62 0 01.546-.293c1.092 0 2.287-.664 3.587-1.992C6.4 5.43 7.53 3.626 8.479 1.348c.026-.04.065-.13.117-.274.065-.143.104-.234.117-.273.013-.04.046-.11.098-.215.065-.117.117-.189.156-.215.052-.039.117-.091.195-.156a.497.497 0 01.234-.117c.09-.026.194-.046.311-.059.13-.026.273-.039.43-.039.233 0 .474.052.72.156.247.104.475.248.683.43.208.17.377.365.507.586.246.404.39.983.428 1.738.04.755.013 1.458-.078 2.11a16.548 16.548 0 01-.331 1.875c2.313-.013 3.886-.02 4.717-.02.767 0 1.384.208 1.852.625.48.417.728.964.74 1.64.014.574-.045 1.01-.175 1.31.221.22.403.455.546.702.156.235.24.502.254.801.013.612-.286 1.237-.897 1.875.013.026.039.091.078.195.039.092.065.17.078.235.026.065.045.15.058.254.013.09.02.182.02.273-.026.716-.442 1.354-1.248 1.914.065.43.059.814-.02 1.153C17.759 19.284 15.7 20 11.892 20zm-9.726-2.676c2.13.17 3.482.469 4.054.899.208.156.39.26.546.312.156.052.624.104 1.403.156.78.04 2.021.059 3.724.059.532 0 1.013-.013 1.442-.04.442-.025.949-.07 1.52-.136.572-.065 1.034-.182 1.385-.351.35-.17.558-.384.623-.645.052-.273-.071-.566-.37-.879a.588.588 0 010-.469.6.6 0 01.312-.351h.02l.233-.098c.091-.039.221-.11.39-.215.182-.104.331-.228.448-.37a.898.898 0 00.195-.45.433.433 0 00-.02-.137.433.433 0 00-.019-.136.21.21 0 00-.039-.118.76.76 0 00-.039-.097.305.305 0 00-.058-.078.226.226 0 00-.04-.059.228.228 0 00-.038-.059l-.04-.039v-.02a.461.461 0 01-.097-.214.71.71 0 010-.234.609.609 0 01.078-.215.854.854 0 01.176-.195 1.92 1.92 0 00.253-.157c.091-.078.202-.215.332-.41a.988.988 0 00.214-.586c-.013-.325-.26-.631-.74-.918a.855.855 0 01-.196-.176.9.9 0 01-.117-.253.643.643 0 01-.019-.157c.013-.065.026-.123.039-.175a.765.765 0 01.097-.176l.04-.04.077-.156c.04-.078.072-.15.098-.214.026-.079.045-.17.058-.274.026-.104.04-.202.04-.293a1.052 1.052 0 00-.196-.586.746.746 0 00-.428-.312 1.85 1.85 0 00-.41-.117 2.509 2.509 0 00-.312-.02h-4.561l-1.053.02a.64.64 0 01-.156-.02.76.76 0 01-.155-.059l-.117-.078a.519.519 0 01-.098-.136c-.117-.17-.136-.365-.058-.586.207-.6.37-1.257.487-1.973.13-.716.188-1.4.175-2.05 0-.652-.09-1.127-.273-1.427a2.474 2.474 0 00-.078-.136 2.436 2.436 0 01-.078-.137.335.335 0 00-.097-.098.245.245 0 00-.136-.097.458.458 0 00-.176-.059.862.862 0 00-.273-.039.21.21 0 00-.117.04 1.066 1.066 0 00-.175.175c-.078.091-.15.215-.215.37-1 2.423-2.209 4.356-3.625 5.802C4.587 9.069 3.216 9.85 1.89 9.98a7.822 7.822 0 00-.273.704c-.078.234-.163.605-.254 1.113a10.687 10.687 0 00-.116 1.621c0 .586.058 1.172.175 1.758.117.573.234 1.028.35 1.367.13.326.26.586.39.781z" fill="#C78E66"/></svg>