<?xml version="1.0" encoding="utf-8"?><svg width="24" height="20" fill="none" xmlns="http://www.w3.org/2000/svg" viewBox="0 0 24 20"><path d="M.31 1.918a1.19 1.19 0 01-.18-.23.799.799 0 01-.104-.256A2.004 2.004 0 010 1.1C0 .776.103.512.31.307.517.102.784 0 1.112 0h21.776c.328 0 .595.102.802.307.207.205.31.469.31.793 0 .324-.103.596-.31.818-.207.205-.474.307-.802.307H1.112c-.328 0-.595-.102-.802-.307zM22.888 8.9c.328 0 .595.103.802.307.207.205.31.469.31.793 0 .324-.103.588-.31.793-.207.204-.474.307-.802.307H1.112c-.328 0-.595-.103-.802-.307a.841.841 0 01-.103-.128l-.104-.153-.051-.154L0 10.205V10c0-.324.103-.588.31-.793.207-.204.474-.307.802-.307h21.776zm.802 9.182c.207.204.31.469.31.793 0 .324-.103.596-.31.818-.207.205-.474.307-.802.307H1.112c-.328 0-.595-.102-.802-.307l-.103-.102a.32.32 0 00-.078-.128.99.99 0 00-.051-.128l-.052-.153A.417.417 0 010 19.054v-.18c0-.323.103-.588.31-.792.207-.205.474-.307.802-.307h21.776c.31 0 .578.102.802.307z" fill="#fff"/></svg>