<?xml version="1.0" encoding="utf-8"?><svg width="42" height="35" fill="none" xmlns="http://www.w3.org/2000/svg" viewBox="0 0 42 35"><path d="M30.476 12.283H11.523a.478.478 0 01-.365-.183.729.729 0 01-.159-.465c0-.175.057-.342.16-.464a.478.478 0 01.364-.183h18.952c.136 0 .267.066.364.183.101.123.159.29.16.464-.012.352-.24.633-.524.648zM30.476 23.137H11.524c-.285-.014-.513-.296-.525-.647a.745.745 0 01.16-.464.478.478 0 01.364-.183h18.952c.136 0 .267.065.364.183.101.122.159.29.16.464-.012.351-.24.633-.524.647zM30.476 17.71H11.524a.454.454 0 01-.365-.197.71.71 0 01-.16-.45.71.71 0 01.16-.45.454.454 0 01.364-.198h18.952a.453.453 0 01.364.197c.1.118.158.28.16.45a.712.712 0 01-.16.465.447.447 0 01-.364.183z" fill="#C78E66"/></svg>