<?xml version="1.0" encoding="utf-8"?><svg width="31" height="27" fill="none" xmlns="http://www.w3.org/2000/svg" viewBox="0 0 31 27"><path d="M5.27 8.813H1.73a.712.712 0 00-.73.729v.937c0 .834.937.834 1.77.938-.312.625-.937 6.25-.937 6.25v6.979c0 .729.625 1.354 1.354 1.354h2.084c.729 0 1.354-.625 1.354-1.354v-2.709h18.02v2.709c0 .729.626 1.354 1.355 1.354h2.083c.73 0 1.355-.625 1.355-1.354v-6.98s-.625-5.52-.938-6.25c.833-.104 1.77-.104 1.77-.937v-.937a.712.712 0 00-.728-.73h-3.438" stroke="#C78E66" stroke-linecap="round" stroke-linejoin="round"/><path d="M26.104 8.708c0 1.563-1.771 2.709-3.334 2.709H8.604c-1.667 0-3.333-1.25-3.333-2.709l1.354-5C6.937 2.354 7.979 1 9.54 1h12.292c1.667 0 2.708 1.354 2.917 2.708l1.354 5zM12.459 16.625h6.458M12.459 18.708h6.458M9.958 17.354c0 1.146-.937 1.98-1.979 1.98A1.978 1.978 0 016 17.353c0-1.146.937-1.979 1.98-1.979 1.04 0 1.978.833 1.978 1.98zM25.583 17.354c0 1.146-.937 1.98-1.979 1.98a1.978 1.978 0 01-1.979-1.98c0-1.146.938-1.979 1.98-1.979 1.04 0 1.978.833 1.978 1.98zM14.021 3.083h3.333M29.542 21.938H1.938" stroke="#C78E66" stroke-linecap="round" stroke-linejoin="round"/></svg>