<?xml version="1.0" encoding="utf-8"?><svg width="16" height="16" fill="none" xmlns="http://www.w3.org/2000/svg" viewBox="0 0 16 16"><path d="M15.34 1.924l-13.4 13.4c-.097.097-.254.125-.439.078a1.3 1.3 0 01-.572-.347 1.299 1.299 0 01-.346-.572c-.047-.185-.02-.342.077-.439l13.4-13.4c.097-.096.254-.124.44-.077.192.05.398.174.571.346.34.356.457.796.27 1.011z" fill="#C78E66"/><path d="M13.827 15.108l-13.4-13.4C.24 1.492.357 1.052.697.696.87.524 1.075.4 1.268.35c.185-.047.342-.02.439.077l13.4 13.4c.096.097.124.254.077.439-.05.193-.175.399-.347.572-.355.34-.795.457-1.01.27z" fill="#C78E66"/></svg>