<?xml version="1.0" encoding="utf-8"?><svg width="20" height="19" fill="none" xmlns="http://www.w3.org/2000/svg" viewBox="0 0 20 19"><path d="M5.614 1.248c.949 0 2.118.688 3.509 2.066l.897.877.877-.897c.195-.208.396-.403.604-.584.22-.182.435-.351.643-.507.208-.156.41-.293.604-.41.209-.117.403-.214.585-.292a2.38 2.38 0 01.527-.195c.182-.039.344-.058.487-.058 1.157 0 2.177.441 3.06 1.325.897.897 1.345 1.975 1.345 3.236 0 1.26-.448 2.346-1.345 3.255-.065.052-2.397 2.567-6.998 7.544a.547.547 0 01-.214.137c-.078.013-.143.02-.195.02a.597.597 0 01-.41-.157c-4.21-4.678-6.543-7.245-6.997-7.7a7.754 7.754 0 01-.312-.331 9.147 9.147 0 00-.273-.37l-.234-.39-.195-.39a5.452 5.452 0 01-.137-.429l-.116-.429a5.404 5.404 0 01-.078-.897c0-1.273.448-2.358 1.345-3.255.415-.403.87-.695 1.364-.877a4.479 4.479 0 011.657-.292zm0-1.248c-.767 0-1.475.123-2.125.37a5.02 5.02 0 00-1.774 1.17A5.843 5.843 0 00.43 3.47 5.981 5.981 0 000 5.673C0 6.4.143 7.128.429 7.856a5.843 5.843 0 001.286 1.93c.117.117.436.467.956 1.052.532.572 1.124 1.222 1.773 1.95.663.727 1.313 1.448 1.95 2.163a466.734 466.734 0 002.3 2.515c.35.364.78.546 1.287.546.52 0 .961-.182 1.325-.546 4.6-4.977 6.927-7.485 6.979-7.524C19.428 8.798 20 7.42 20 5.809c0-1.611-.572-2.982-1.715-4.113-.572-.572-1.183-.994-1.833-1.267A5.08 5.08 0 0014.347 0c-.689 0-1.416.227-2.183.682A11.028 11.028 0 0010 2.417C8.363.806 6.9 0 5.614 0z" fill="#C78E66"/></svg>