<?xml version="1.0" encoding="utf-8"?><svg width="50" height="50" xmlns="http://www.w3.org/2000/svg" viewBox="0 0 50 50"><rect width="50" height="50" rx="25"/><path fill-rule="evenodd" clip-rule="evenodd" d="M31.86 32.722c-4.53-.02-9.06-.007-13.588-.01-.919 0-1.078-.162-1.082-1.126-.01-2.45.016-4.901-.024-7.35-.012-.767.241-1.06.998-.942.281.043.573.007.986.007-.477 2.678.163 4.944 2.369 6.584 1.203.893 2.6 1.3 4.088 1.124 3.236-.382 6.08-3.008 5.343-7.669h1.864c.017.268.047.52.047.772.004 2.529-.016 5.059.013 7.588.009.75-.26 1.025-1.014 1.022zm-6.767-11.637c2.168.009 3.833 1.726 3.828 3.951-.004 2.147-1.789 3.905-3.934 3.877-2.07-.028-3.87-1.83-3.895-3.9-.026-2.137 1.807-3.937 4-3.928zm5.677-3.959h.079c2.102-.025 2.019-.065 1.998 2.033 0 1.959 0 1.959-1.992 1.96-2.013 0-2.013 0-2.013-2.042 0-1.949 0-1.949 1.928-1.951zm1.89-2.123c-2.5-.005-5 0-7.501-.001-2.526-.001-5.054.001-7.58-.002-1.57-.002-2.566.95-2.57 2.54-.014 4.95-.01 9.9 0 14.851.002.985.359 1.843 1.29 2.266.505.229 1.113.314 1.676.32 3.316.028 6.632.012 9.95.013 1.42 0 2.842.02 4.263.002 1.761-.022 2.802-.912 2.804-2.405.01-5.082.01-10.165.002-15.247-.001-1.362-.984-2.334-2.334-2.337z" fill="#fff"/></svg>