<?xml version="1.0" encoding="utf-8"?><svg width="14" height="20" xmlns="http://www.w3.org/2000/svg" viewBox="0 0 14 20"><path d="M6.96 20a6.938 6.938 0 01-3.5-.92 6.83 6.83 0 01-2.525-2.446A6.524 6.524 0 010 13.23c0-2.27 1.551-5.734 4.653-10.391A49.28 49.28 0 016.463.254.574.574 0 016.96 0c.212 0 .385.085.517.254.093.118.212.28.358.49.146.195.398.541.756 1.037.371.496.73 1.01 1.074 1.546.345.535.729 1.148 1.153 1.84a27.71 27.71 0 011.193 2.074c.358.691.69 1.39.995 2.094.318.691.563 1.376.736 2.054.172.679.258 1.292.258 1.84 0 .73-.12 1.442-.358 2.133a6.454 6.454 0 01-1.014 1.879 7.183 7.183 0 01-1.511 1.448 6.482 6.482 0 01-1.93.959A7.098 7.098 0 016.96 20zm.02-18.297a57.053 57.053 0 00-1.551 2.27 85.845 85.845 0 00-1.83 2.974 23.688 23.688 0 00-1.69 3.464c-.424 1.122-.636 2.061-.636 2.818 0 1.513.557 2.811 1.67 3.894 1.114 1.083 2.453 1.625 4.017 1.625 1.591 0 2.95-.542 4.077-1.625 1.127-1.083 1.69-2.38 1.69-3.894 0-.535-.106-1.155-.318-1.86a12.234 12.234 0 00-.855-2.19 34.273 34.273 0 00-1.133-2.193 31.232 31.232 0 00-1.313-2.152 35.76 35.76 0 00-1.193-1.781c-.318-.47-.63-.92-.935-1.35z"/></svg>