<?xml version="1.0" encoding="utf-8"?><svg width="20" height="19" xmlns="http://www.w3.org/2000/svg" viewBox="0 0 20 19"><path d="M13.875.818A9.43 9.43 0 0010 0a9.564 9.564 0 00-3.894.818 9.981 9.981 0 00-3.19 2.176c-.887.904-1.598 1.989-2.133 3.253A10.307 10.307 0 000 10.219c0 1.756.411 3.399 1.233 4.93a10.076 10.076 0 003.464 3.711c.143.093.3.12.47.08.169-.04.3-.133.39-.28a.615.615 0 00.079-.478.62.62 0 00-.274-.4 8.884 8.884 0 01-2.622-2.574l.665-.4a.55.55 0 00.274-.378.56.56 0 00-.059-.48.533.533 0 00-.371-.299.53.53 0 00-.47.06l-.665.38a9.43 9.43 0 01-.568-1.577 8.986 8.986 0 01-.274-1.677h.685c.183 0 .333-.06.45-.18a.674.674 0 00.176-.459.603.603 0 00-.176-.439.573.573 0 00-.45-.2h-.685a8.752 8.752 0 01.88-3.292l.627.379a.61.61 0 00.313.08.568.568 0 00.528-.32.56.56 0 00.06-.478.55.55 0 00-.275-.38L2.78 5.17a8.947 8.947 0 012.348-2.375l.352.619c.118.213.3.32.548.32a.684.684 0 00.314-.08.666.666 0 00.176-.16.636.636 0 00.097-.22.5.5 0 00.02-.24.465.465 0 00-.078-.259l-.352-.619a8.106 8.106 0 011.526-.558 9.695 9.695 0 011.624-.3v.799c0 .186.059.339.176.459.13.12.28.18.45.18.183 0 .333-.06.45-.18a.628.628 0 00.177-.46v-.798a8.534 8.534 0 013.229.878l-.353.6-.039.119a.784.784 0 00-.039.1v.22l.04.119c.012.027.025.06.038.1a.313.313 0 01.06.08l.077.08a.244.244 0 00.098.06l.079.04.078.04h.156a.632.632 0 00.157-.02.431.431 0 00.137-.06.523.523 0 00.137-.1.394.394 0 00.117-.14l.333-.599A9.074 9.074 0 0117.24 5.19l-.587.36a.58.58 0 00-.196.159c-.04.067-.072.14-.098.22a.571.571 0 00-.02.259.68.68 0 00.313.459c.105.053.21.08.314.08a.632.632 0 00.156-.02.753.753 0 00.157-.06l.587-.34a8.807 8.807 0 01.861 3.274h-.685c-.17 0-.32.066-.45.2a.603.603 0 00-.176.439c0 .173.058.325.176.459.13.12.28.18.45.18h.685a9.047 9.047 0 01-.822 3.212l-.626-.359a.579.579 0 00-.49-.06.59.59 0 00-.371.3.645.645 0 00-.079.24.501.501 0 00.02.239c.026.08.059.153.098.22a.58.58 0 00.196.159l.626.379a8.888 8.888 0 01-2.7 2.635.62.62 0 00-.275.399c-.039.16-.013.319.079.479.039.053.084.1.136.14.066.053.131.092.196.12.066.026.13.039.196.039a.609.609 0 00.333-.1 9.867 9.867 0 003.483-3.692A10.237 10.237 0 0020 10.198c0-1.37-.267-2.687-.802-3.951-.522-1.264-1.233-2.349-2.133-3.253a9.702 9.702 0 00-3.19-2.176zm.743 7.405a.68.68 0 00.235-.24.72.72 0 00.079-.32.72.72 0 00-.079-.318.608.608 0 00-.391-.28.583.583 0 00-.47.04l-3.405 2.016a1.147 1.147 0 00-.607-.18c-.339 0-.632.127-.88.38a1.24 1.24 0 00-.372.898c0 .226.052.439.157.638.117.2.274.36.47.48.195.106.404.159.625.159.34 0 .633-.127.881-.38a1.24 1.24 0 00.372-.897l3.385-1.996z"/></svg>