<?xml version="1.0" encoding="utf-8"?><svg width="21" height="20" xmlns="http://www.w3.org/2000/svg" viewBox="0 0 21 20"><path d="M19 8.105l-1.602-.351a7.657 7.657 0 00-.468-1.152l.86-1.446c.116-.182.2-.37.253-.566.065-.208.078-.423.039-.645a1.036 1.036 0 00-.293-.566L16.91 2.5a1.022 1.022 0 00-.43-.254 1.044 1.044 0 00-.488-.078c-.156 0-.312.026-.469.078a2.16 2.16 0 00-.43.195l-1.405.899-.157-.078-.156-.078a.765.765 0 00-.156-.059 2.333 2.333 0 00-.176-.078.763.763 0 00-.156-.059.698.698 0 00-.176-.058.76.76 0 00-.156-.059l-.352-1.64a1.65 1.65 0 00-.469-.84C11.487.13 11.2 0 10.875 0h-1.25c-.326 0-.599.124-.82.371a2.06 2.06 0 00-.43.879l-.41 1.602a6.096 6.096 0 00-.625.234c-.195.078-.39.17-.586.273l-1.445-.918a1.461 1.461 0 00-.586-.234 1.349 1.349 0 00-.645 0c-.221.04-.41.137-.566.293l-.899.879c-.221.286-.325.58-.312.879.026.3.13.599.312.898l.918 1.524a7.686 7.686 0 00-.43 1.074L1.5 8.105a1.762 1.762 0 00-.879.47c-.247.234-.371.52-.371.859v1.25c0 .312.124.579.371.8.247.222.54.371.879.45l1.621.39c.104.326.241.658.41.996l-.918 1.524c-.182.3-.286.599-.312.898-.013.3.09.593.312.88l.899.878c.26.234.56.352.898.352.339-.014.638-.111.899-.293l1.445-.918.234.117.235.117c.09.026.175.059.254.098.09.026.175.058.253.097a6.3 6.3 0 01.254.078l.391 1.602c.078.338.228.631.45.879.22.247.488.371.8.371h1.25c.221 0 .43-.065.625-.195.195-.117.352-.274.469-.47a1.63 1.63 0 00.234-.585l.352-1.621c.39-.117.768-.274 1.133-.469l1.406.899c.273.182.58.28.918.293.338 0 .638-.118.898-.352l.88-.879c.22-.286.318-.58.292-.879-.013-.3-.11-.599-.293-.898l-.86-1.446c.183-.351.333-.71.45-1.074l1.621-.39c.338-.079.631-.228.879-.45.247-.221.371-.488.371-.8v-1.25c0-.508-.267-.899-.8-1.172a1.42 1.42 0 00-.45-.157zm0 2.48a.225.225 0 01-.059.04.772.772 0 01-.097.04l-.117.038-2.325.586-.215.645c-.052.156-.11.312-.175.468a3.135 3.135 0 01-.196.43l-.312.625 1.23 2.031a.938.938 0 01.118.313l-.82.82a1.842 1.842 0 01-.137-.039.573.573 0 01-.079-.059l-2.05-1.308-.645.332-.312.156c-.105.04-.209.085-.313.137a2.86 2.86 0 01-.312.098l-.684.234-.508 2.324a.762.762 0 01-.058.156.637.637 0 01-.079.098H9.723a.868.868 0 01-.118-.273l-.585-2.305-.665-.215-.117-.039a.743.743 0 00-.097-.04l-.118-.038-.117-.04a.49.49 0 00-.117-.058l-.117-.039a.498.498 0 00-.117-.058.759.759 0 00-.098-.04l-.117-.078-.645-.332-2.05 1.309a.446.446 0 01-.254.098l-.82-.801a.767.767 0 01.116-.293l1.27-2.13-.293-.605a7.053 7.053 0 01-.351-.82l-.215-.664-2.285-.586a.87.87 0 01-.313-.117V9.434c.013 0 .026-.007.04-.02l.077-.039a.19.19 0 01.098-.04l2.363-.526.215-.684c.078-.273.195-.573.352-.898l.312-.606-1.27-2.11-.078-.156A.45.45 0 013.57 4.2l.82-.82.215.098 2.09 1.328.645-.332c.325-.17.664-.313 1.015-.43l.665-.215.566-2.265a.692.692 0 01.137-.313h1.152l.02.059c.013.013.02.026.02.039.012.013.019.032.019.058a.225.225 0 00.039.059l.507 2.363.684.235c.326.104.645.234.957.39l.645.332 2.011-1.289a.518.518 0 01.254-.078l.82.8a.598.598 0 00-.038.118.44.44 0 01-.079.156l-1.23 2.051.312.625c.092.17.17.332.235.488.065.157.117.313.156.469l.215.684 2.324.527c.143.026.235.072.274.137L19 10.586zm-6.094-3.241c-.729-.73-1.614-1.094-2.656-1.094-1.029 0-1.914.365-2.656 1.094C6.864 8.073 6.5 8.958 6.5 10s.365 1.927 1.094 2.656c.742.73 1.627 1.094 2.656 1.094.52 0 1.01-.098 1.465-.293a3.707 3.707 0 001.21-.8c.34-.34.606-.736.802-1.192.195-.469.293-.957.293-1.465a3.585 3.585 0 00-1.114-2.656zm-.898 4.433a2.393 2.393 0 01-1.758.723c-.69 0-1.283-.24-1.777-.723A2.458 2.458 0 017.75 10c0-.69.24-1.276.723-1.758A2.425 2.425 0 0110.25 7.5c.69 0 1.276.247 1.758.742.495.482.742 1.068.742 1.758s-.247 1.283-.742 1.777z"/></svg>