<?xml version="1.0" encoding="utf-8"?><svg width="14" height="20" xmlns="http://www.w3.org/2000/svg" viewBox="0 0 14 20"><path d="M8.347 1.252L6.962 8.67l5.04.02-6.849 10.059 1.385-8.16-5.04-.02 6.849-9.316zm0-1.252H8.25a.818.818 0 00-.269.078 1.3 1.3 0 00-.27.137C7.623.28 7.54.36 7.462.45l-.038.04c0 .012-.006.025-.019.038L.498 9.804c-.295.418-.327.855-.096 1.312.038.078.083.156.135.234l.192.196c.077.052.154.098.23.137.09.04.18.072.27.098.09.013.18.02.27.02l3.558.019-1.135 6.712c-.051.287-.006.555.135.803.141.26.34.45.596.567.077.04.154.065.231.078.09.014.18.02.27.02.371 0 .685-.17.942-.509l6.906-10.059c.295-.417.327-.854.096-1.31-.23-.457-.596-.686-1.097-.686H8.444l1.116-5.89a.584.584 0 00.019-.137.654.654 0 00.019-.157.954.954 0 00-.058-.332 1.163 1.163 0 00-.308-.548.844.844 0 00-.23-.196A1.12 1.12 0 008.712.06.858.858 0 008.404 0h-.038-.02z"/></svg>