<?xml version="1.0" encoding="utf-8"?><svg width="20" height="16" fill="none" xmlns="http://www.w3.org/2000/svg" viewBox="0 0 20 16"><path d="M19.98 2.141a.348.348 0 000-.227l-.039-.113c-.156-.682-.657-1.023-1.503-1.023H2.188c-.391 0-.769.07-1.133.208-.352.139-.619.328-.801.568l-.098.095a.526.526 0 00-.136.492.164.164 0 00-.02.076v10.884c0 .505.234.985.703 1.44.469.454.964.681 1.485.681h16.25c.481 0 .859-.214 1.132-.644a2.6 2.6 0 00.43-1.477V2.293v-.038-.057c0-.025-.006-.044-.02-.057zM2.188 1.99h16.25L10 8.524 1.582 2.009c.104-.013.306-.02.605-.02zm16.25 12.02H2.188c-.117 0-.253-.05-.41-.151a1.648 1.648 0 01-.37-.36c-.105-.152-.157-.284-.157-.398V3.316l8.34 6.458a.609.609 0 00.41.152.769.769 0 00.41-.152l8.34-6.458v9.861c0 .555-.104.833-.313.833z" fill="#C78E66"/></svg>