<?xml version="1.0" encoding="utf-8"?><svg width="33" height="33" fill="none" xmlns="http://www.w3.org/2000/svg" viewBox="0 0 33 33"><path d="M22.088 11.434a.259.259 0 00-.258-.258l-2.127.01-3.203 3.819-3.2-3.816-2.13-.01a.257.257 0 00-.258.258c0 .062.023.12.061.168l4.193 4.995-4.193 4.992a.259.259 0 00.197.425l2.13-.01 3.2-3.818 3.2 3.815 2.127.01a.257.257 0 00.258-.258.268.268 0 00-.061-.167l-4.186-4.992 4.192-4.995a.26.26 0 00.058-.168z" fill="#ADB5BD"/><path d="M16.5 2.095c-7.973 0-14.438 6.464-14.438 14.437 0 7.973 6.465 14.438 14.438 14.438 7.973 0 14.438-6.465 14.438-14.438 0-7.973-6.465-14.437-14.438-14.437zm0 26.425c-6.62 0-11.988-5.368-11.988-11.988 0-6.62 5.369-11.988 11.988-11.988 6.62 0 11.988 5.369 11.988 11.988 0 6.62-5.369 11.988-11.988 11.988z" fill="#ADB5BD"/></svg>