<?xml version="1.0" encoding="utf-8"?><svg width="20" height="18" fill="none" xmlns="http://www.w3.org/2000/svg" viewBox="0 0 20 18"><path d="M5.605 2.09c1.355-.56 2.82-.84 4.395-.84 1.575 0 3.034.28 4.375.84 1.354.56 2.422 1.321 3.203 2.285.781.95 1.172 1.992 1.172 3.125s-.39 2.181-1.172 3.145c-.781.95-1.849 1.705-3.203 2.265-1.341.56-2.8.84-4.375.84h-.997a8.69 8.69 0 01-.448-.059l-.684-.097-.45.547a5.489 5.489 0 01-.331.293 16.22 16.22 0 01-.527.41c-.209.156-.456.325-.743.508-.286.169-.566.319-.84.449a6.79 6.79 0 00.313-.996c.078-.339.117-.664.117-.977l.02-.039v-.879l-.684-.351c-1.107-.56-1.966-1.283-2.578-2.168-.612-.886-.918-1.85-.918-2.891 0-1.133.39-2.174 1.172-3.125.781-.964 1.842-1.725 3.183-2.285zM10 0C8.19 0 6.517.339 4.98 1.016 3.444 1.68 2.227 2.59 1.328 3.75.443 4.896 0 6.146 0 7.5c0 1.29.365 2.474 1.094 3.555.729 1.067 1.758 1.94 3.086 2.617 0 .013-.007.026-.02.039v.02c0 .846-.332 1.842-.996 2.988a.573.573 0 00-.039.215c0 .156.052.293.156.41a.598.598 0 00.41.156h.157c.599-.104 1.243-.338 1.933-.703.69-.365 1.25-.716 1.68-1.055.443-.338.749-.612.918-.82.338.052.703.078 1.094.078H10c1.81 0 3.483-.332 5.02-.996 1.536-.677 2.747-1.589 3.632-2.734C19.551 10.11 20 8.854 20 7.5c0-1.836-.794-3.457-2.383-4.863-1.654-1.446-3.73-2.298-6.23-2.559A12.55 12.55 0 0010 0z" fill="#C78E66"/></svg>