<?xml version="1.0" encoding="utf-8"?><svg width="31" height="31" fill="none" xmlns="http://www.w3.org/2000/svg" viewBox="0 0 31 31"><g clip-path="url(#beclip0_187:3067)"><path d="M29.701 21.725l-6.589-2.824a1.412 1.412 0 00-1.647.406l-2.918 3.565A21.807 21.807 0 018.122 12.448l3.566-2.918a1.409 1.409 0 00.406-1.648L9.27 1.293A1.421 1.421 0 007.652.476L1.533 1.888A1.412 1.412 0 00.44 3.264c0 15.09 12.231 27.298 27.298 27.298a1.412 1.412 0 001.377-1.095l1.412-6.118a1.429 1.429 0 00-.825-1.624z" fill="#fff"/></g><defs><clipPath id="beclip0_187:3067"><path fill="#fff" transform="translate(.439 .439)" d="M0 0h30.122v30.122H0z"/></clipPath></defs></svg>