<?xml version="1.0" encoding="utf-8"?><svg width="18" height="18" fill="none" xmlns="http://www.w3.org/2000/svg" viewBox="0 0 18 18"><path d="M17.542 13.561a4.133 4.133 0 00-.438-.315c-.245-.164-.532-.351-.859-.562a47.286 47.286 0 00-.981-.649 36.14 36.14 0 00-.876-.579 6.104 6.104 0 00-.49-.316.614.614 0 00-.176-.087.927.927 0 00-.193-.053.984.984 0 00-.193-.018.387.387 0 00-.122.018.514.514 0 00-.123.018.516.516 0 00-.123.017l-.14.035a.96.96 0 00-.122.053.955.955 0 00-.123.052.389.389 0 00-.123.053c-.222.117-.753.415-1.594.895-.713-.503-1.6-1.287-2.664-2.351-1.051-1.053-1.828-1.936-2.33-2.65l.893-1.596c.304-.584.333-1.07.088-1.456a273.42 273.42 0 00-1.244-1.877A93.441 93.441 0 004.434.421C4.236.141 3.932 0 3.524 0c-.106 0-.211.012-.316.035A1.832 1.832 0 002.91.14a1.57 1.57 0 00-.28.14 13.73 13.73 0 01-.298.229c-.129.105-.345.286-.649.544a9.737 9.737 0 00-.788.736 4.675 4.675 0 00-.631.79c-.187.28-.275.526-.263.737.012.491.1 1.011.263 1.561.163.538.385 1.076.666 1.614.28.538.59 1.07.929 1.597.35.526.741 1.052 1.174 1.579.432.526.847 1.011 1.244 1.456.397.433.818.871 1.261 1.316a38.97 38.97 0 002.068 1.93 33.21 33.21 0 002.243 1.736 13.2 13.2 0 002.471 1.351c.841.34 1.63.52 2.366.544h.017c.199 0 .438-.094.719-.28a4.54 4.54 0 00.77-.65c.246-.234.491-.491.737-.772.257-.292.438-.508.543-.649l.21-.28c.362-.515.415-1.006.158-1.474a1.036 1.036 0 00-.298-.334zm-.771 1.14c-.35.492-.742.96-1.174 1.404-.432.433-.748.69-.946.772-1.052-.058-2.296-.532-3.733-1.42-1.425-.901-2.955-2.17-4.591-3.808-1.624-1.637-2.886-3.17-3.785-4.596-.9-1.439-1.373-2.679-1.42-3.72.07-.199.322-.514.754-.947.444-.433.911-.825 1.402-1.175a.275.275 0 01.07-.053.155.155 0 01.07-.018.33.33 0 01.105-.017c.012 0 .024.006.035.017.701 1.006 1.472 2.17 2.313 3.492A.942.942 0 015.766 5a1.561 1.561 0 00-.087.158c-.035.07-.082.152-.14.246a4.77 4.77 0 01-.176.315l-.228.386c-.07.14-.151.293-.245.456l-.35.614.403.58c.549.783 1.372 1.725 2.47 2.824 1.099 1.1 2.033 1.918 2.804 2.456l.579.421.63-.35c.34-.2.655-.38.947-.545.292-.175.496-.286.613-.333a.667.667 0 01.35-.123h.018c.946.597 2.115 1.374 3.505 2.334.011.082-.018.17-.088.263z" fill="#fff"/></svg>