<?xml version="1.0" encoding="utf-8"?><svg width="15" height="20" fill="none" xmlns="http://www.w3.org/2000/svg" viewBox="0 0 15 20"><path d="M7.578 0a7.138 7.138 0 00-2.93.625 7.57 7.57 0 00-2.402 1.64 7.953 7.953 0 00-1.64 2.422A7.334 7.334 0 000 7.617C0 8.19.078 8.79.234 9.414c.157.625.339 1.204.547 1.738a12 12 0 00.899 1.778c.39.65.735 1.204 1.035 1.66.312.443.729.99 1.25 1.64.52.639.924 1.127 1.21 1.465.287.339.69.808 1.212 1.407.156.182.273.312.351.39a.669.669 0 00.137.137c.065.065.182.143.352.234.169.091.332.137.488.137h.058c.365 0 .69-.17.977-.508C12.917 14.7 15 10.742 15 7.617c0-2.174-.664-3.978-1.992-5.41C11.628.736 9.818 0 7.578 0zm.234 18.652a.221.221 0 01-.078.078l-.078-.078-.332-.37c-.495-.574-.879-1.016-1.152-1.329a103.7 103.7 0 01-1.152-1.406 25.881 25.881 0 01-1.172-1.543c-.287-.43-.619-.944-.996-1.543a13.091 13.091 0 01-.88-1.64 13.249 13.249 0 01-.507-1.583 6.695 6.695 0 01-.215-1.62c0-1.134.286-2.188.86-3.165A6.418 6.418 0 014.413 2.11a6.145 6.145 0 013.164-.859c1.029 0 1.947.182 2.754.547.807.351 1.452.833 1.934 1.445a6.45 6.45 0 011.113 2.031c.247.743.371 1.524.371 2.344 0 2.813-1.98 6.491-5.938 11.035zM7.52 3.77c-.404 0-.801.065-1.192.195a3.89 3.89 0 00-1.836 1.348 3.752 3.752 0 00-.547 1.035A3.931 3.931 0 003.77 7.52c0 1.041.364 1.927 1.093 2.656.742.729 1.628 1.094 2.657 1.094 1.041 0 1.927-.365 2.656-1.094.729-.73 1.094-1.615 1.094-2.656 0-.508-.098-.99-.293-1.446a3.492 3.492 0 00-.801-1.191 3.708 3.708 0 00-1.211-.801A3.436 3.436 0 007.52 3.77zm0 6.25c-.69 0-1.283-.248-1.778-.743A2.425 2.425 0 015 7.5c0-.69.24-1.276.723-1.758A2.425 2.425 0 017.5 5c.69 0 1.276.247 1.758.742C9.753 6.224 10 6.81 10 7.5c0 .86-.345 1.543-1.035 2.05-.43.313-.912.47-1.445.47z" fill="#C78E66"/></svg>