<?xml version="1.0" encoding="utf-8"?><svg width="28" height="28" fill="none" xmlns="http://www.w3.org/2000/svg" viewBox="0 0 28 28"><path d="M26.718 14.451c-9.32-9.23-7.438-7.348-13.262-13.172-.359-.359-.807-.269-1.434-.269L1.986 1.1A.994.994 0 001 2.085l.09 10.753c0 .27.09.538.268.717.18.18 13.262 13.172 13.531 13.352.448.179.807.09 1.076-.18l10.663-10.752c.448-.538.448-1.165.09-1.524z" stroke="#C78E66" stroke-miterlimit="10" stroke-linecap="round" stroke-linejoin="round"/><path d="M6.824 9.164a2.33 2.33 0 100-4.66 2.33 2.33 0 000 4.66z" stroke="#C78E66" stroke-miterlimit="10" stroke-linecap="round" stroke-linejoin="round"/><path d="M16.681 20.276c-.896.896-2.15.985-2.867.268-.717-.716-.627-1.97.269-2.867.896-.896 2.15-.986 2.867-.269.807.717.627 2.061-.269 2.868zM16.323 12.928c-.896.896-2.15.986-2.867.269-.717-.717-.628-1.972.268-2.868.896-.896 2.15-.985 2.868-.269.717.717.537 1.972-.27 2.868zM20.714 14.362L9.603 16.154" stroke="#C78E66" stroke-linecap="round" stroke-linejoin="round"/></svg>