<?xml version="1.0" encoding="utf-8"?><svg width="17" height="17" fill="none" xmlns="http://www.w3.org/2000/svg" viewBox="0 0 17 17"><path opacity=".9" fill-rule="evenodd" clip-rule="evenodd" d="M7.861.65c2.897 0 5.462 1.57 6.786 3.966l1.903-1.9v5.37h-5.379l2.317-2.313c-1.075-2.066-3.144-3.47-5.627-3.47-3.393 0-6.206 2.81-6.206 6.197 0 3.388 2.813 6.197 6.206 6.197 2.731 0 4.965-1.735 5.875-4.131h1.738c-.91 3.305-3.972 5.784-7.613 5.784A7.852 7.852 0 010 8.5C0 4.203 3.558.65 7.861.65zM6.344 4.782v4.214l3.89 2.313.661-1.074-3.31-1.983v-3.47h-1.24z" fill="#fff"/></svg>