<?xml version="1.0" encoding="utf-8"?><svg width="18" height="18" xmlns="http://www.w3.org/2000/svg" viewBox="0 0 18 18"><path d="M9.009 1.126c.457 0 .926.094 1.407.282.493.176.921.404 1.285.686.364.27.663.575.897.915.235.328.352.64.352.932v2.816c0 .668-.14 1.413-.422 2.234s-.698 1.443-1.25 1.865a1.242 1.242 0 00-.246.3c-.07.105-.123.222-.158.351-.024.118-.03.24-.018.37.059.422.276.721.651.897l4.91 2.323.035.017c.023 0 .046.006.07.018.024.012.053.03.088.053a.312.312 0 01.088.088.266.266 0 01.088.105.397.397 0 01.07.176c.012.07.018.147.018.229v1.09l-15.748.018v-1.143c0-.293.158-.51.475-.651l4.944-2.34c.376-.176.587-.47.634-.88.059-.423-.076-.763-.405-1.02-.54-.435-.962-1.062-1.267-1.883-.293-.833-.44-1.572-.44-2.217V3.94c0-.387.194-.797.581-1.231.387-.446.892-.821 1.513-1.126.622-.305 1.238-.458 1.848-.458zm0-1.126c-.81 0-1.613.2-2.41.598-.787.387-1.426.892-1.919 1.513-.492.61-.739 1.22-.739 1.83v2.816c0 .762.176 1.642.528 2.639.364.985.898 1.765 1.601 2.34l-4.944 2.34a.985.985 0 00-.123.053 3.717 3.717 0 00-.264.158 4.57 4.57 0 00-.352.247 1.455 1.455 0 00-.264.316.59.59 0 00-.123.335v1.707c0 .305.106.563.317.774.223.223.492.334.81.334H16.89c.306 0 .564-.111.775-.334.223-.212.334-.47.334-.774v-1.707a.61.61 0 00-.123-.352.915.915 0 00-.282-.317 2.906 2.906 0 00-.316-.246c-.106-.07-.2-.123-.282-.159l-.105-.035-4.91-2.34c.704-.551 1.226-1.314 1.566-2.287.352-.974.528-1.871.528-2.692V3.94c0-.457-.152-.92-.457-1.39a4.928 4.928 0 00-1.144-1.284A5.972 5.972 0 0010.84.352 5.161 5.161 0 009.009 0z"/></svg>