<?xml version="1.0" encoding="utf-8"?><svg width="33" height="40" xmlns="http://www.w3.org/2000/svg" viewBox="0 0 33 40"><path d="M2.483 2.505L30.556 20 2.444 37.495l.039-34.99zm0-2.505a2.3 2.3 0 00-1.184.313C.459.81.039 1.54.039 2.505L0 37.495c0 .966.42 1.696 1.26 2.192.179.104.37.183.573.235.204.052.408.078.611.078.23 0 .446-.04.65-.117.229-.053.433-.144.61-.274l28.15-17.496C32.618 21.643 33 20.94 33 20c0-.287-.05-.561-.153-.822a1.868 1.868 0 00-.382-.744 2.032 2.032 0 00-.61-.547L3.742.39a2.087 2.087 0 00-.42-.195 1.988 1.988 0 00-.42-.118A1.098 1.098 0 002.483 0z"/></svg>