<?xml version="1.0" encoding="utf-8"?><svg width="50" height="50" xmlns="http://www.w3.org/2000/svg" viewBox="0 0 50 50"><rect width="50" height="50" rx="25"/><path fill-rule="evenodd" clip-rule="evenodd" d="M33.545 30h-2.31c-.753 0-.848-.521-2.23-1.773-1.165-1.092-1.665-1.178-1.947-1.178-.252 0-.424.18-.424.596v1.67c0 .492-.299.685-1.524.685-2.01 0-4.24-1.177-5.937-3.353C16.644 23.413 16 20.998 16 20.477c0-.283.22-.477.519-.477h2.057c.534 0 .738.15.927.686.942 2.623 2.623 4.933 3.33 4.933.267 0 .298-.209.298-.745v-2.668c0-1.293-.77-1.4-.77-1.878 0-.19.157-.328.409-.328h3.298c.44 0 .503.15.503.656v3.621c0 .413.09.567.282.567.24 0 .461-.138.895-.596 1.354-1.418 2.467-3.667 2.467-3.667.14-.283.314-.476.785-.476h2.057c.41 0 .582.209.504.58-.237 1.044-2.608 4.218-2.608 4.218-.22.328-.314.507 0 .82.22.268.911.85 1.335 1.386C33.324 28.152 34 29.03 34 29.523c0 .372-.22.477-.455.477" fill="#fff"/></svg>