<?xml version="1.0" encoding="utf-8"?><svg width="25" height="26" fill="none" xmlns="http://www.w3.org/2000/svg" viewBox="0 0 25 26"><path fill-rule="evenodd" clip-rule="evenodd" d="M11.316.53a12.637 12.637 0 00-4.474 1.304c-.645.322-.758.416-.758.63 0 .17.181.362.34.362.046 0 .362-.143.702-.318.34-.174.65-.317.69-.317.042 0 .127.156.219.403.288.776.416.92.71.8.268-.11.271-.247.02-.91-.122-.324-.21-.597-.193-.607.06-.036 1.063-.314 1.42-.393a12.782 12.782 0 011.96-.253l.611-.032-.015.615c-.014.567-.007.623.086.716.134.134.398.133.52-.002.079-.087.096-.196.11-.685l.016-.581h.198c.324 0 1.196.142 1.843.3.582.141 1.552.456 1.633.529.02.02-.062.255-.184.525-.245.541-.272.736-.123.87.121.11.36.116.475.011.048-.043.184-.3.303-.57.119-.27.24-.492.27-.492.076 0 .961.505 1.381.789.472.318 1.25.948 1.548 1.254l.237.243-.445.434c-.477.464-.515.55-.343.768a.299.299 0 00.265.13c.138 0 .233-.065.59-.394.498-.463.42-.483.97.248a11.715 11.715 0 011.37 2.317l.117.265-.564.209c-.493.182-.573.227-.626.354-.084.2-.01.395.178.473.13.054.2.04.687-.141.298-.111.558-.192.579-.179.056.035.326 1.058.437 1.662.109.588.198 1.447.198 1.906v.293l-.556-.015c-.554-.015-.558-.014-.66.117-.137.174-.131.34.016.487.112.113.153.12.636.12h.515v.202c0 .345-.144 1.212-.315 1.9-.167.674-.507 1.662-.57 1.662-.02 0-.304-.121-.63-.269-.328-.148-.648-.269-.713-.269-.17 0-.314.165-.314.36 0 .212.076.275.627.517.25.11.521.234.602.276l.146.075-.205.376a11.902 11.902 0 01-1.793 2.459l-.366.383-.373-.401c-.584-.626-.58-.623-.728-.623-.223 0-.355.124-.355.333 0 .16.052.236.467.679l.466.499-.381.303c-.21.168-.601.449-.87.626-.523.344-1.838 1.03-1.973 1.03-.06 0-.14-.154-.295-.574-.118-.316-.247-.613-.288-.66-.177-.201-.598-.038-.598.232 0 .097.203.689.414 1.207.028.068-.025.1-.3.181-.924.274-1.882.432-2.903.478l-.686.032.006-.674c.006-.616-.002-.682-.093-.773-.13-.13-.394-.125-.504.01-.062.077-.09.256-.116.737-.041.74.036.681-.746.564a12.334 12.334 0 01-1.55-.323c-.56-.16-1.356-.457-1.378-.514-.011-.03.08-.268.202-.532.244-.527.275-.745.123-.882-.111-.1-.35-.117-.454-.032-.038.032-.177.3-.309.594-.131.295-.261.537-.29.537-.077.002-.873-.463-1.345-.786-.483-.33-1.242-.957-1.562-1.29l-.22-.229.396-.374c.476-.45.539-.55.46-.74a.443.443 0 00-.37-.246c-.038 0-.278.188-.533.418l-.462.417-.304-.38c-.167-.21-.456-.612-.642-.895-.375-.57-1.058-1.914-.987-1.942 1.138-.434 1.275-.533 1.149-.838a.362.362 0 00-.399-.21 5.347 5.347 0 00-.51.182c-.237.093-.457.169-.49.169-.072 0-.321-.889-.46-1.638-.108-.588-.197-1.447-.197-1.906v-.293l.605.015.606.015.103-.132c.136-.173.131-.32-.016-.458-.107-.1-.181-.115-.685-.138l-.564-.025v-.194c0-.322.142-1.195.3-1.843.149-.61.442-1.497.522-1.576.024-.025.25.053.52.179.558.259.711.275.854.093.23-.291.111-.45-.562-.75a19.391 19.391 0 01-.503-.228c-.036-.025.453-.885.802-1.41.357-.538.989-1.325 1.305-1.627l.168-.16.404.44c.357.392.422.442.57.442.21 0 .363-.144.363-.341 0-.116-.086-.24-.413-.592l-.412-.446.229-.195c.58-.494.554-.463.538-.656-.02-.225-.212-.39-.402-.342-.305.077-1.789 1.496-2.433 2.328C1.242 7.078.378 9.155.063 11.429c-.084.609-.084 2.52 0 3.128.516 3.725 2.503 6.888 5.606 8.925 4.11 2.698 9.563 2.69 13.675-.02a12.555 12.555 0 005.033-6.567c1.183-3.576.66-7.6-1.392-10.717-2.014-3.06-5.082-5.018-8.735-5.576C13.645.51 11.917.467 11.316.53zm.49 4.965c-1.376.163-2.64.636-3.692 1.38-.505.357-1.389 1.242-1.751 1.753a7.902 7.902 0 00-1.266 2.96c-.155.782-.155 2.028 0 2.81.616 3.091 2.96 5.4 6.097 6.008.674.131 1.984.12 2.7-.023 3.086-.614 5.413-2.966 6.007-6.07.124-.646.124-1.994 0-2.64-.59-3.087-2.94-5.469-5.98-6.062-.507-.099-1.708-.165-2.116-.116zm2.066.85c2.688.565 4.76 2.681 5.3 5.413.117.59.117 1.88 0 2.47-.55 2.785-2.655 4.89-5.446 5.446-.592.118-1.88.118-2.472 0-3.897-.776-6.322-4.586-5.335-8.383.694-2.67 2.959-4.668 5.715-5.04.525-.071 1.683-.022 2.238.094zm-2.531.73c-1.215.252-2.23.792-3.082 1.641-1.188 1.182-1.783 2.612-1.783 4.288 0 1.3.394 2.52 1.138 3.524.398.536.673.822 1.135 1.18 1.146.89 2.32 1.298 3.734 1.297.885 0 1.648-.152 2.412-.481.342-.148.424-.368.228-.616-.13-.165-.274-.154-.857.063-1.06.396-2.364.408-3.487.032-1.763-.59-3.14-2.185-3.497-4.05-.094-.491-.094-1.427.001-1.925.355-1.871 1.663-3.39 3.478-4.037 1.03-.367 2.367-.373 3.421-.014a5.349 5.349 0 013.515 4.05c.095.5.095 1.432 0 1.932-.216 1.135-.858 2.276-1.685 2.992-.263.228-.295.276-.295.439 0 .23.12.345.36.345.166 0 .227-.045.659-.477 1.18-1.181 1.768-2.604 1.768-4.275 0-2.77-1.826-5.116-4.547-5.84-.647-.171-1.955-.206-2.616-.068zm.733 1.49c-.51.226-.752.88-.509 1.382.445.918 1.816.692 1.936-.319.051-.435-.214-.9-.606-1.066-.2-.083-.63-.082-.82.003zm.62.745c.05.045.09.133.09.196 0 .14-.161.31-.294.31-.13 0-.293-.169-.293-.302 0-.246.31-.373.497-.204zm-3.113.294c-.373.196-.563.507-.563.92a1 1 0 001.698.743c.69-.636.24-1.749-.706-1.742-.16 0-.347.035-.43.079zm4.938 0c-.408.214-.656.672-.583 1.077.045.25.098.348.308.567.624.653 1.718.192 1.718-.724 0-.41-.19-.724-.548-.908-.225-.116-.687-.122-.895-.012zm-4.248.776c.065.1.07.148.026.245-.14.306-.545.238-.545-.092 0-.088.026-.186.058-.218.109-.109.371-.071.46.065zm4.898-.066c.109.109.071.371-.065.46-.253.167-.56-.141-.395-.394.09-.136.352-.174.46-.066zm-3.203.89c-.508.166-.95.558-1.18 1.047-.112.24-.13.341-.13.743 0 .426.014.493.159.787.19.388.54.731.93.914.243.114.343.131.746.131.426 0 .493-.013.787-.158.388-.191.731-.54.915-.931.113-.242.13-.342.13-.744 0-.401-.017-.502-.13-.744a2.041 2.041 0 00-.908-.927c-.261-.129-.384-.158-.714-.17-.246-.01-.478.01-.605.052zm1.127.844c.62.435.697 1.214.175 1.736-.268.268-.527.357-.922.317a1.106 1.106 0 01-.964-.964c-.041-.398.048-.653.324-.929.279-.278.454-.342.875-.318.247.014.354.047.512.158zm-4.49.008c-.404.19-.612.51-.612.937 0 .308.086.516.295.72.653.636 1.732.187 1.732-.72 0-.341-.162-.648-.45-.85a1.018 1.018 0 00-.965-.087zm6.93.014a1.027 1.027 0 00.004 1.848c.438.212 1.01.055 1.287-.352.124-.182.14-.25.14-.577 0-.329-.016-.394-.14-.573-.28-.405-.86-.56-1.291-.346zm-6.32.728a.338.338 0 01.099.195c0 .13-.17.293-.302.293-.246 0-.374-.31-.204-.497.106-.117.286-.113.408.009zm6.953-.017c.182.164.055.505-.188.505-.14 0-.31-.16-.31-.293 0-.13.169-.293.302-.293.058 0 .146.036.196.08zm-6.428 1.694c-.437.137-.72.524-.72.987 0 .589.414 1.002 1.003 1.002.488 0 .89-.315 1.003-.787.12-.5-.202-1.043-.71-1.195-.274-.083-.328-.083-.576-.006zm4.909.009c-.51.159-.816.7-.687 1.213.228.908 1.481 1.052 1.909.219.125-.244.123-.667-.004-.916a1.112 1.112 0 00-.664-.536c-.258-.065-.285-.064-.554.02zm-4.429.78c.14.14.149.209.044.358-.085.12-.351.15-.452.05-.1-.1-.07-.367.05-.452.15-.104.219-.096.358.044zm4.902-.044c.12.085.15.351.05.452-.101.1-.368.07-.453-.05-.104-.15-.096-.218.044-.358.14-.14.21-.148.359-.044zm-2.937.282c-.738.23-.953 1.158-.397 1.714.378.377 1.03.372 1.418-.012.56-.553.305-1.524-.448-1.714-.255-.064-.334-.062-.573.012zm.502.766c.12.119.126.28.017.4-.164.181-.505.055-.505-.188 0-.14.16-.31.293-.31.054 0 .142.044.195.098z" fill="#C78E66"/></svg>