<?xml version="1.0" encoding="utf-8"?><svg width="50" height="50" xmlns="http://www.w3.org/2000/svg" viewBox="0 0 50 50"><rect width="50" height="50" rx="25"/><path fill-rule="evenodd" clip-rule="evenodd" d="M22.955 27.937v-5.874L28.935 25l-5.98 2.938zm13.178-6.773c-.037-.885-.279-1.754-.921-2.468-.79-.877-1.892-.955-2.977-.995-2.413-.088-4.828-.127-7.8-.201-2.166.081-4.888.163-7.606.293-1.226.06-2.147.641-2.557 1.759a6.282 6.282 0 00-.393 1.842c-.086 1.945-.147 3.893-.124 5.84.01.946.169 1.903.372 2.833.259 1.186 1.089 1.914 2.363 2.108.803.122 1.62.185 2.433.213 4.647.157 9.293.168 13.939-.087 1.584-.087 2.688-.845 3.05-2.297.193-.776.331-1.585.336-2.38a136.58 136.58 0 00-.114-6.46z" fill="#fff"/></svg>